<svg xmlns="http://www.w3.org/2000/svg" xmlns:xlink="http://www.w3.org/1999/xlink" version="1.1" x="0px" y="0px" viewBox="0 0 100 125" enable-background="new 0 0 100 100" xml:space="preserve"><g><path fill-rule="evenodd" clip-rule="evenodd" d="M73.219,73.933V20.317c0-0.002,0.002-0.003,0.002-0.005s-0.002-0.003-0.002-0.005   V18.7c0-5.384-4.379-9.764-9.764-9.764H36.544c-5.384,0-9.764,4.38-9.764,9.764v62.599c0,5.384,4.38,9.765,9.764,9.765h26.911   c5.385,0,9.764-4.381,9.764-9.765v-7.356c0-0.002,0.002-0.003,0.002-0.005S73.219,73.935,73.219,73.933z M30.78,22.313h38.438   v49.625H30.78V22.313z M36.544,12.937h26.911c3.047,0,5.543,2.379,5.744,5.376H30.8C31.001,15.315,33.497,12.937,36.544,12.937z    M63.455,87.063H36.544c-3.178,0-5.764-2.586-5.764-5.765v-5.361h38.438v5.361C69.219,84.478,66.633,87.063,63.455,87.063z"/><path fill-rule="evenodd" clip-rule="evenodd" d="M50.312,29.946L35.703,46.714h3.999v14.329h21.222V46.714h3.998L50.312,29.946z    M50.312,36.036l5.819,6.678H44.494L50.312,36.036z M56.924,57.043H43.702V46.717h13.222V57.043z"/><path fill-rule="evenodd" clip-rule="evenodd" d="M50.31,78.679c-1.498,0-2.719,1.222-2.719,2.719s1.221,2.719,2.719,2.719   c1.499,0,2.719-1.222,2.719-2.719S51.809,78.679,50.31,78.679z"/></g><text x="0" y="115" fill="#000000" font-size="5px" font-weight="bold" font-family="'Helvetica Neue', Helvetica, Arial-Unicode, Arial, Sans-serif">Created by Nikita Kozin</text><text x="0" y="120" fill="#000000" font-size="5px" font-weight="bold" font-family="'Helvetica Neue', Helvetica, Arial-Unicode, Arial, Sans-serif">from the Noun Project</text></svg>