<svg xmlns:dc="http://purl.org/dc/elements/1.1/" xmlns:cc="http://creativecommons.org/ns#" xmlns:rdf="http://www.w3.org/1999/02/22-rdf-syntax-ns#" xmlns:svg="http://www.w3.org/2000/svg" xmlns="http://www.w3.org/2000/svg" xmlns:sodipodi="http://sodipodi.sourceforge.net/DTD/sodipodi-0.dtd" xmlns:inkscape="http://www.inkscape.org/namespaces/inkscape" version="1.1" x="0px" y="0px" viewBox="0 0 100 125"><g transform="translate(0,-952.36218)"><path style="font-size:medium;font-style:normal;font-variant:normal;font-weight:normal;font-stretch:normal;text-indent:0;text-align:start;text-decoration:none;line-height:normal;letter-spacing:normal;word-spacing:normal;text-transform:none;direction:ltr;block-progression:tb;writing-mode:lr-tb;text-anchor:start;baseline-shift:baseline;opacity:1;color:#000000;fill:#000000;fill-opacity:1;stroke:none;stroke-width:4;marker:none;visibility:visible;display:inline;overflow:visible;enable-background:accumulate;font-family:Sans;-inkscape-font-specification:Sans" d="m 75.71875,966.36218 c 3.37613,0 6.28125,2.63392 6.28125,6 l 0,34.00002 c 0,1.2461 -0.389738,2.3948 -1.0625,3.3437 l 12.75,20.5938 A 2.0002,2.0002 0 0 1 94,1031.3622 l 0,5 a 2.0002,2.0002 0 0 1 -2,2 l -42,0 -42,0 a 2.0002,2.0002 0 0 1 -2,-2 l 0,-5 a 2.0002,2.0002 0 0 1 0.3125,-1.0625 l 12.75,-20.5938 C 18.389738,1008.757 18,1007.6083 18,1006.3622 l 0,-34.00002 c 0,-3.36608 2.90512,-6 6.28125,-6 l 51.4375,0 z m 0,4 -51.4375,0 c -1.372441,0 -2.28125,0.93408 -2.28125,2 l 0,34.00002 c 0,1.0659 0.908809,2 2.28125,2 l 51.4375,0 c 1.372441,0 2.28125,-0.9341 2.28125,-2 l 0,-34.00002 c 0,-1.06592 -0.908809,-2 -2.28125,-2 z m -25.40625,7 a 2.0001999,2.0001999 0 0 1 0.875,0.375 l 12,9 A 2.0001999,2.0001999 0 0 1 62,990.36218 l -3,0 0,9 a 2.0001999,2.0001999 0 0 1 -2,2.00002 l -5,0 -4,0 -5,0 a 2.0001999,2.0001999 0 0 1 -2,-2.00002 l 0,-9 -3,0 a 2.0001999,2.0001999 0 0 1 -1.1875,-3.625 l 12,-9 a 2.0001999,2.0001999 0 0 1 1.5,-0.375 z m -0.3125,4.5 -6.21875,4.65625 A 2.0001999,2.0001999 0 0 1 45,988.36218 l 0,9 2,0 0,-5.75 c 0,-0.6925 0.521422,-1.25 1.15625,-1.25 l 3.6875,0 c 0.634828,0 1.15625,0.5575 1.15625,1.25 l 0,5.75 2,0 0,-9 a 2.0001999,2.0001999 0 0 1 1.21875,-1.84375 L 50,981.86218 z m 27.71875,30.18752 c -0.632107,0.2054 -1.30719,0.3125 -2,0.3125 l -51.4375,0 c -0.69281,0 -1.367893,-0.1071 -2,-0.3125 L 10,1031.8934 l 0,2.4688 40,0 40,0 0,-2.4688 -12.28125,-19.8437 z m -9.53125,4.3125 a 2.0021961,2.0021961 0 1 1 -0.1875,4 l -36,0 a 2.0002,2.0002 0 1 1 0,-4 l 36,0 a 2.0002,2.0002 0 0 1 0.1875,0 z m 5,8 a 2.0021961,2.0021961 0 1 1 -0.1875,4 l -46,0 a 2.0001996,2.0001996 0 1 1 0,-4 l 46,0 a 2.0001996,2.0001996 0 0 1 0.1875,0 z"/></g><text x="0" y="115" fill="#000000" font-size="5px" font-weight="bold" font-family="'Helvetica Neue', Helvetica, Arial-Unicode, Arial, Sans-serif">Created by arejoenah</text><text x="0" y="120" fill="#000000" font-size="5px" font-weight="bold" font-family="'Helvetica Neue', Helvetica, Arial-Unicode, Arial, Sans-serif">from the Noun Project</text></svg>