<svg xmlns="http://www.w3.org/2000/svg" xmlns:xlink="http://www.w3.org/1999/xlink" version="1.1" x="0px" y="0px" viewBox="0 0 128 160" enable-background="new 0 0 128 128" xml:space="preserve"><g><path fill="#000000" d="M112.8,97.5h-4.2v-2.9V79.5c0-4-3.3-7.3-7.3-7.3H8.3c-4,0-7.3,3.3-7.3,7.3v30.3h107.7v-7.3h4.2   c5,0,9.1,4.1,9.1,9.1c0,5-4.1,9.1-9.1,9.1H19.3c-1.4,0-2.5,1.1-2.5,2.5s1.1,2.5,2.5,2.5h93.6c7.8,0,14.2-6.4,14.2-14.2   S120.6,97.5,112.8,97.5z M15.4,92.1c-3.7,0-6.7-3-6.7-6.8c0-3.7,3-6.8,6.7-6.8c3.7,0,6.7,3,6.7,6.8C22.1,89.1,19.1,92.1,15.4,92.1z    M35.8,92.1c-3.7,0-6.7-3-6.7-6.8c0-3.7,3-6.8,6.7-6.8c3.7,0,6.7,3,6.7,6.8C42.5,89.1,39.5,92.1,35.8,92.1z"/><path fill="#000000" d="M48.5,67.2h12.7V44.5c-2,0.6-4.1,0.9-6.3,0.9c-2.2,0-4.3-0.3-6.3-0.9V67.2z"/><path fill="#000000" d="M54.8,40.3c10.5,0,19-8.5,19-19.1s-8.5-19.1-19-19.1c-10.5,0-19,8.5-19,19.1S44.3,40.3,54.8,40.3z    M54.8,10.3c6,0,10.9,4.9,10.9,10.9c0,1.4-1.1,2.5-2.5,2.5c-1.4,0-2.5-1.1-2.5-2.5c0-3.3-2.6-5.9-5.9-5.9c-1.4,0-2.5-1.1-2.5-2.5   S53.4,10.3,54.8,10.3z"/></g><text x="0" y="143" fill="#000000" font-size="5px" font-weight="bold" font-family="'Helvetica Neue', Helvetica, Arial-Unicode, Arial, Sans-serif">Created by Vectors Market</text><text x="0" y="148" fill="#000000" font-size="5px" font-weight="bold" font-family="'Helvetica Neue', Helvetica, Arial-Unicode, Arial, Sans-serif">from the Noun Project</text></svg>