<svg xmlns:x="http://ns.adobe.com/Extensibility/1.0/" xmlns:i="http://ns.adobe.com/AdobeIllustrator/10.0/" xmlns:graph="http://ns.adobe.com/Graphs/1.0/" xmlns="http://www.w3.org/2000/svg" xmlns:xlink="http://www.w3.org/1999/xlink" version="1.1" x="0px" y="0px" viewBox="0 0 100 125" enable-background="new 0 0 100 100" xml:space="preserve"><metadata><sfw xmlns="http://ns.adobe.com/SaveForWeb/1.0/"><slices/><sliceSourceBounds height="90.5" width="53" x="23.5" y="4.75" bottomLeftOrigin="true"/><optimizationSettings><targetSettings fileFormat="GIFFormat" targetSettingsID="0"><GIFFormat transparency="true" lossy="0" autoReduce="false" rolloverMasterPalette="false" numColors="256" ditherPercent="100" ditherAlgorithm="diffusion" reductionAlgorithm="selective" includeCaption="false" webShiftPercent="0" noMatteColor="false" interlaced="false" matteColor="#FFFFFF"><colorTable isExact="false"/><lockedColors/><colorShiftEntries/></GIFFormat></targetSettings></optimizationSettings></sfw></metadata><g><path d="M72,4.75H28c-2.481,0-4.5,2.019-4.5,4.5v81.5c0,2.481,2.019,4.5,4.5,4.5h44c2.481,0,4.5-2.019,4.5-4.5V9.25   C76.5,6.769,74.481,4.75,72,4.75z M73.5,90.75c0,0.827-0.673,1.5-1.5,1.5H28c-0.827,0-1.5-0.673-1.5-1.5V9.25   c0-0.827,0.673-1.5,1.5-1.5h44c0.827,0,1.5,0.673,1.5,1.5V90.75z"/><circle cx="50" cy="87.5" r="2.5"/><path d="M70,11H30c-0.829,0-1.5,0.671-1.5,1.5v70c0,0.828,0.671,1.5,1.5,1.5h40c0.828,0,1.5-0.672,1.5-1.5v-70   C71.5,11.671,70.828,11,70,11z M68.5,14v67h-37V14H68.5z"/><path d="M44.75,47.927v1.698c0,2.067,1.682,3.75,3.75,3.75h3c2.067,0,3.75-1.683,3.75-3.75v-1.698   c2.333-1.681,3.75-4.404,3.75-7.302c0-4.962-4.037-9-9-9c-4.962,0-9,4.038-9,9C41,43.522,42.417,46.246,44.75,47.927z M50,34.625   c3.309,0,6,2.691,6,6c0,2.129-1.15,4.118-3.002,5.19l-0.748,0.433v3.376c0,0.414-0.337,0.75-0.75,0.75h-3   c-0.414,0-0.75-0.336-0.75-0.75v-3.376l-0.748-0.433C45.15,44.743,44,42.754,44,40.625C44,37.316,46.691,34.625,50,34.625z"/><path d="M52.5,56h-5c-0.829,0-1.5,0.672-1.5,1.5s0.671,1.5,1.5,1.5h5c0.828,0,1.5-0.672,1.5-1.5S53.328,56,52.5,56z"/><path d="M47.5,41.5h5c0.828,0,1.5-0.671,1.5-1.5s-0.672-1.5-1.5-1.5h-5c-0.829,0-1.5,0.671-1.5,1.5S46.671,41.5,47.5,41.5z"/><path d="M50,29c0.829,0,1.5-0.671,1.5-1.5V25c0-0.829-0.671-1.5-1.5-1.5s-1.5,0.671-1.5,1.5v2.5C48.5,28.329,49.171,29,50,29z"/><path d="M61,40c0,0.829,0.672,1.5,1.5,1.5H65c0.828,0,1.5-0.671,1.5-1.5s-0.672-1.5-1.5-1.5h-2.5C61.672,38.5,61,39.171,61,40z"/><path d="M35,41.5h2.5c0.829,0,1.5-0.671,1.5-1.5s-0.671-1.5-1.5-1.5H35c-0.829,0-1.5,0.671-1.5,1.5S34.171,41.5,35,41.5z"/><path d="M58.232,32.055c0.384,0,0.768-0.146,1.061-0.439l1.768-1.768c0.586-0.585,0.586-1.536,0-2.121   c-0.586-0.586-1.535-0.586-2.121,0l-1.768,1.768c-0.586,0.585-0.586,1.536,0,2.121C57.465,31.908,57.849,32.055,58.232,32.055z"/><path d="M39.494,31.615c0.293,0.293,0.677,0.439,1.061,0.439s0.768-0.146,1.061-0.439c0.586-0.585,0.586-1.536,0-2.121   l-1.768-1.768c-0.586-0.586-1.535-0.586-2.121,0c-0.586,0.585-0.586,1.536,0,2.121L39.494,31.615z"/></g><text x="0" y="115" fill="#000000" font-size="5px" font-weight="bold" font-family="'Helvetica Neue', Helvetica, Arial-Unicode, Arial, Sans-serif">Created by Ralf Schmitzer</text><text x="0" y="120" fill="#000000" font-size="5px" font-weight="bold" font-family="'Helvetica Neue', Helvetica, Arial-Unicode, Arial, Sans-serif">from the Noun Project</text></svg>