<?xml version="1.0" encoding="utf-8"?>
<!-- Generator: Adobe Illustrator 14.0.0, SVG Export Plug-In . SVG Version: 6.00 Build 43363)  -->
<!DOCTYPE svg PUBLIC "-//W3C//DTD SVG 1.1//EN" "http://www.w3.org/Graphics/SVG/1.1/DTD/svg11.dtd">
<svg version="1.1" id="Layer_1" xmlns="http://www.w3.org/2000/svg" xmlns:xlink="http://www.w3.org/1999/xlink" x="0px" y="0px"
	 width="250px" height="175px" viewBox="0 0 250 175" enable-background="new 0 0 250 175" xml:space="preserve">
<g>
	<path fill="#FFFFFF" d="M219.209,36.757c17.768,16.224,29.59,36.958,24.67,61.582c-6.729,37.004-46.378,60.602-79.793,67.688
		c-27.925,6.844-60.66,4.678-87.45-2.858c-26.905-8.503-57.358-26.271-68.547-55.008c-8.918-26.79,2.281-53.631,23.195-71.404
		C60.297,12.427,95.89,3.105,135.481,5.11C166.598,7.853,195.266,16.535,219.209,36.757"/>
	<path fill="none" stroke="#FFFFFF" stroke-width="0" stroke-linecap="square" stroke-miterlimit="2" d="M219.209,36.757
		c17.768,16.224,29.59,36.958,24.67,61.582c-6.729,37.004-46.378,60.602-79.793,67.688c-27.925,6.844-60.66,4.678-87.45-2.858
		c-26.905-8.503-57.358-26.271-68.547-55.008c-8.918-26.79,2.281-53.631,23.195-71.404C60.297,12.427,95.89,3.105,135.481,5.11
		C166.598,7.853,195.266,16.535,219.209,36.757z"/>
	<path fill="#012D62" d="M212.93,36.071c14.909,11.943,25.303,27.187,27.93,44.955c3.146,27.481-14.104,50.78-36.733,64.836
		c-30.442,18.506-69.117,24.658-106.934,18.103c-24.047-4.172-50.549-20.28-58.084-45.353c-7.593-22.048-2.063-47.012,14.115-63.235
		c10.094-11.021,22.215-19.306,34.383-26.041h-1.371c-20.683,4.73-40.041,13.251-55.238,30.725
		c-14.161,15.82-15.532,42.5-7.144,61.409c1.717,4.344,4.459,8.216,6.856,12.226C13.862,118.716,4.149,97.428,10.543,74.752
		c8.861-33.426,44.385-53.643,74.723-61.582C129.536,2.316,177.971,10.14,212.93,36.071"/>
	<path fill="none" stroke="#000000" stroke-width="0" stroke-linecap="square" stroke-miterlimit="2" d="M212.93,36.071
		c14.909,11.943,25.303,27.187,27.93,44.955c3.146,27.481-14.104,50.78-36.733,64.836c-30.442,18.506-69.117,24.658-106.934,18.103
		c-24.047-4.172-50.549-20.28-58.084-45.353c-7.593-22.048-2.063-47.012,14.115-63.235c10.094-11.021,22.215-19.306,34.383-26.041
		h-1.371c-20.683,4.73-40.041,13.251-55.238,30.725c-14.161,15.82-15.532,42.5-7.144,61.409c1.717,4.344,4.459,8.216,6.856,12.226
		C13.862,118.716,4.149,97.428,10.543,74.752c8.861-33.426,44.385-53.643,74.723-61.582C129.536,2.316,177.971,10.14,212.93,36.071z
		"/>
	<path fill="#FFFFFF" d="M126.966,29.215c16.16,2.916,31.474,7.881,46.487,13.712c4.852,2.396,7.018,8.106,11.2,11.943
		c12.444,10.111,27.758,15.02,37.978,28.61c3.664,6.631-0.08,13.44-3.94,18.793c-7.593,6.625-16.442,10.048-24.842,14.668
		c-8.285,3.895-16.569,7.72-25.073,10.98c-0.634,0.335,0.161,0.657,0.564,1.061l0.519,0.427
		c11.995-4.057,23.921-8.182,35.639-12.859c-1.198,4.113-3.434,8.342-5.3,12.456c-2.696,4.229-4.852,13.112-18.678,11.36
		l-34.118-5.312c-16.379,4.056-32.2,10.116-50.313,9.033c-6.51-0.622-12.571-3.768-16.338-9.586
		c-2.397-4.355-3.883-9.265-3.422-14.703c0.853,0.646,1.486,1.832,2.224,2.754c16.108,18.401,44.673,15.014,66.318,10.739
		c14.898-4.909,29.358-10.854,43.07-18.517c5.301-3.71,8.792-9.068,8.216-15.642c-1.141-13.481-15.936-21.484-26.433-26.45
		c-8.469-2.961-17.272-5.531-26.916-5.19l21.247-9.604c1.486-0.403,2.178,1.083,2.754,2.063c0.783,2.114,0.968,4.793-0.403,6.677
		c3.952,0.945,6.211,1.492,9.31,2.235c11.938,4.16,24.439,10.047,31.929,21.754c2.052,3.779,2.513,8.631,1.256,12.911l0.288,0.403
		c5.992-2.063,8.158-7.225,9.875-13.418c-0.161-7.092-7.535-11.257-12.329-15.48c-7.777-5.772-16.004-10.335-24.001-15.538
		c-5.023-2.979-6.74-9.489-12.11-11.661c-9.644-3.076-21.189-1.25-31.525-0.789c-17.934,1.936-34.665,6.792-49.183,17.013
		c1.613-13.026,4.574-25.758,9.034-37.695c2.108-4.863,4.563-10.975,10.163-12.911C118.739,13.735,122.334,23.563,126.966,29.215"/>
	<path fill="none" stroke="#FFFFFF" stroke-width="0" stroke-linecap="square" stroke-miterlimit="2" d="M126.966,29.215
		c16.16,2.916,31.474,7.881,46.487,13.712c4.852,2.396,7.018,8.106,11.2,11.943c12.444,10.111,27.758,15.02,37.978,28.61
		c3.664,6.631-0.08,13.44-3.94,18.793c-7.593,6.625-16.442,10.048-24.842,14.668c-8.285,3.895-16.569,7.72-25.073,10.98
		c-0.634,0.335,0.161,0.657,0.564,1.061l0.519,0.427c11.995-4.057,23.921-8.182,35.639-12.859c-1.198,4.113-3.434,8.342-5.3,12.456
		c-2.696,4.229-4.852,13.112-18.678,11.36l-34.118-5.312c-16.379,4.056-32.2,10.116-50.313,9.033
		c-6.51-0.622-12.571-3.768-16.338-9.586c-2.397-4.355-3.883-9.265-3.422-14.703c0.853,0.646,1.486,1.832,2.224,2.754
		c16.108,18.401,44.673,15.014,66.318,10.739c14.898-4.909,29.358-10.854,43.07-18.517c5.301-3.71,8.792-9.068,8.216-15.642
		c-1.141-13.481-15.936-21.484-26.433-26.45c-8.469-2.961-17.272-5.531-26.916-5.19l21.247-9.604
		c1.486-0.403,2.178,1.083,2.754,2.063c0.783,2.114,0.968,4.793-0.403,6.677c3.952,0.945,6.211,1.492,9.31,2.235
		c11.938,4.16,24.439,10.047,31.929,21.754c2.052,3.779,2.513,8.631,1.256,12.911l0.288,0.403c5.992-2.063,8.158-7.225,9.875-13.418
		c-0.161-7.092-7.535-11.257-12.329-15.48c-7.777-5.772-16.004-10.335-24.001-15.538c-5.023-2.979-6.74-9.489-12.11-11.661
		c-9.644-3.076-21.189-1.25-31.525-0.789c-17.934,1.936-34.665,6.792-49.183,17.013c1.613-13.026,4.574-25.758,9.034-37.695
		c2.108-4.863,4.563-10.975,10.163-12.911C118.739,13.735,122.334,23.563,126.966,29.215z"/>
	<path fill="#002D62" d="M120.502,27.274c0.403,0.801,1.21,1.371,1.095,2.351c-10.059,4.166-18.401,14.841-23.713,23.869h-0.277
		c1.475-10.681,4.217-20.792,8.792-30.16c1.302-1.769,2.108-4.223,4.401-5.087C115.767,18.592,117.599,24.134,120.502,27.274"/>
	<path fill="none" stroke="#000000" stroke-width="0" stroke-linecap="square" stroke-miterlimit="2" d="M120.502,27.274
		c0.403,0.801,1.21,1.371,1.095,2.351c-10.059,4.166-18.401,14.841-23.713,23.869h-0.277c1.475-10.681,4.217-20.792,8.792-30.16
		c1.302-1.769,2.108-4.223,4.401-5.087C115.767,18.592,117.599,24.134,120.502,27.274z"/>
</g>
</svg>
