<?xml version="1.0" encoding="UTF-8" standalone="no"?>
<!-- Created with Inkscape (http://www.inkscape.org/) -->

<svg
   xmlns:dc="http://purl.org/dc/elements/1.1/"
   xmlns:cc="http://creativecommons.org/ns#"
   xmlns:rdf="http://www.w3.org/1999/02/22-rdf-syntax-ns#"
   xmlns:svg="http://www.w3.org/2000/svg"
   xmlns="http://www.w3.org/2000/svg"
   xmlns:sodipodi="http://sodipodi.sourceforge.net/DTD/sodipodi-0.dtd"
   xmlns:inkscape="http://www.inkscape.org/namespaces/inkscape"
   width="932.2901"
   height="289.56995"
   id="svg2"
   version="1.1"
   inkscape:version="0.48.5 r10040"
   sodipodi:docname="New document 1">
  <defs
     id="defs4" />
  <sodipodi:namedview
     id="base"
     pagecolor="#ffffff"
     bordercolor="#666666"
     borderopacity="1.0"
     inkscape:pageopacity="0.0"
     inkscape:pageshadow="2"
     inkscape:zoom="1.04"
     inkscape:cx="437.75571"
     inkscape:cy="166.53193"
     inkscape:document-units="px"
     inkscape:current-layer="layer1"
     showgrid="false"
     fit-margin-top="0"
     fit-margin-left="0"
     fit-margin-right="0"
     fit-margin-bottom="0"
     inkscape:window-width="1366"
     inkscape:window-height="705"
     inkscape:window-x="-8"
     inkscape:window-y="-8"
     inkscape:window-maximized="1" />
  <metadata
     id="metadata7">
    <rdf:RDF>
      <cc:Work
         rdf:about="">
        <dc:format>image/svg+xml</dc:format>
        <dc:type
           rdf:resource="http://purl.org/dc/dcmitype/StillImage" />
        <dc:title></dc:title>
      </cc:Work>
    </rdf:RDF>
  </metadata>
  <g
     inkscape:label="Layer 1"
     inkscape:groupmode="layer"
     id="layer1"
     transform="translate(-212.63491,-630.38333)">
    <g
       id="g3030">
      <path
         style="fill:#b1cae0"
         d="m 341.13492,918.58189 c -1.1,-0.72504 -6.5,-4.17827 -12,-7.67383 -31.17623,-19.81425 -54.35886,-38.43579 -61.9045,-49.72503 -3.95141,-5.91182 -5.23954,-9.86759 -6.03215,-18.52439 -0.29441,-3.21554 -1.18863,-9.74054 -1.98716,-14.5 -0.79853,-4.75946 -1.75022,-12.49691 -2.11488,-17.19433 -0.81119,-10.4496 0.0751,-12.93951 8.46686,-23.78733 3.30014,-4.26599 6.69136,-9.4104 7.53604,-11.43201 1.66749,-3.99087 1.97045,-18.43694 0.61321,-29.2399 -0.86176,-6.85917 -0.20752,-10.38457 2.21017,-11.90961 2.53322,-1.59791 5.0862,1.67786 7.72306,9.90961 2.67966,8.36536 5.65672,12.63974 10.35689,14.87012 1.91424,0.90837 12.24036,2.91265 22.94693,4.45396 12.93238,1.86174 20.36361,3.39019 22.13917,4.55359 2.96642,1.94367 5.58559,7.39885 8.80301,18.33484 l 2.14068,7.27613 -2.19867,6.82663 c -2.35193,7.30252 -2.84908,15.10089 -1.16348,18.25047 1.36201,2.54494 5.35719,2.50617 17.73227,-0.1721 11.6039,-2.51136 14.27396,-3.77031 17.79955,-8.39259 1.46871,-1.92558 3.30796,-3.50105 4.08723,-3.50105 0.77926,0 2.23937,1.91887 3.24468,4.26416 2.43888,5.68968 4.39019,7.10971 9.86395,7.17828 4.54856,0.057 4.64452,-0.0112 9.66565,-6.86867 l 5.07149,-6.92622 0,-9.07378 0,-9.07377 -5.75,-10.06368 c -3.1625,-5.53502 -5.75,-10.8009 -5.75,-11.70196 0,-0.90105 2.05121,-3.04955 4.55825,-4.77444 2.50704,-1.72489 4.97091,-4.22151 5.47525,-5.54804 1.3358,-3.5134 -0.43036,-7.16004 -4.21591,-8.7047 -3.06211,-1.24947 -3.22791,-1.57827 -2.96357,-5.87691 0.19537,-3.17703 -0.21524,-5.04864 -1.35843,-6.19183 -1.97851,-1.9785 -8.39162,-2.16617 -10.91714,-0.31947 -1.72903,1.26431 -1.71678,1.48955 0.29549,5.43392 2.26179,4.43349 5.50305,7.24711 8.34857,7.24711 2.20384,0 2.33249,1.57305 0.1957,2.39301 -3.09948,1.18939 -8.11888,0.59491 -9.65093,-1.14301 -2.51635,-2.85448 -7.76728,-14.00833 -7.76728,-16.49898 0,-5.21709 5.98584,-9.75102 12.87361,-9.75102 6.59588,0 13.12639,6.9819 13.12639,14.03367 0,4.09642 2.11964,3.44356 3.27319,-1.00816 1.20339,-4.644 0.38978,-6.99075 -4.2518,-12.26387 l -4.02417,-4.5717 2.64928,-5.10637 c 4.85137,-9.35082 4.082,-20.95119 -1.80773,-27.25616 -2.58752,-2.76995 -3.28225,-3.01211 -6.95613,-2.42463 -2.24483,0.35896 -7.66643,2.29137 -12.04799,4.29423 -7.11499,3.25235 -7.90561,3.88414 -7.3969,5.911 0.82522,3.28792 -0.65878,3.65482 -5.82525,1.44021 -9.76408,-4.18537 -30.69424,-7.26216 -50.81025,-7.46924 l -14.69774,-0.1513 -6.5514,-7.6782 c -7.08811,-8.30722 -9.01822,-9.74948 -13.04723,-9.74948 -3.22918,0 -13.14172,8.97819 -15.14548,13.71788 -1.82125,4.30797 -1.73983,18.40519 0.14816,25.65367 0.8297,3.18546 1.25315,6.205 0.94098,6.71009 -0.88717,1.43548 -2.60851,1.08321 -3.99898,-0.81836 -1.19678,-1.6367 -1.39655,-1.6223 -3.46839,0.25 -3.30055,2.98265 -15.57466,21.72063 -20.02233,30.5666 -2.1524,4.2809 -4.67215,10.51234 -5.59944,13.84765 -1.59188,5.72564 -1.58579,6.70341 0.10908,17.51445 2.03109,12.95567 1.62825,16.09843 -3.44391,26.86755 -1.6036,3.40476 -3.48371,8.32797 -4.17801,10.94047 -0.6943,2.6125 -1.54548,4.75 -1.8915,4.75 -1.25354,0 -9.27388,-17.74335 -12.58979,-27.85231 -6.5507,-19.97061 -6.82958,-23.41581 -6.84891,-84.61033 l -0.0174,-54.96265 11.5,-3.83303 c 21.05923,-7.01919 46.19708,-12.26199 74,-15.43359 21.30974,-2.43089 69.15104,-2.40941 90.80562,0.0408 26.90056,3.04376 47.71811,7.34881 72.00279,14.89009 l 13.30841,4.13275 -0.40291,57.56414 c -0.37807,54.0158 -0.53236,58.13917 -2.50298,66.8926 -8.94408,39.72917 -31.59391,73.09902 -71.7808,105.75422 -8.65545,7.03328 -9.34791,7.3993 -12.0565,6.37297 -4.41613,-1.67334 -7.36688,-4.89133 -10.50432,-11.45564 -1.57725,-3.3 -2.87714,-5.55 -2.88863,-5 -0.0115,0.55 -0.44392,3.925 -0.96095,7.5 -0.59683,4.12684 -0.58409,9.0118 0.0349,13.37972 0.67573,4.76832 0.64725,7.27456 -0.0928,8.16626 -0.96557,1.16344 -29.53675,19.5261 -30.18767,19.40157 -0.15079,-0.0288 -1.17417,-0.64568 -2.27417,-1.37073 z m 46.13088,-82.87463 c 3.15959,-1.6453 8.36912,-7.09394 8.36912,-8.75324 0,-2.07909 -6.15206,-3.94895 -12.9925,-3.94895 -11.22563,0 -28.19816,4.07243 -30.15268,7.23491 -1.65485,2.67761 2.4478,5.88192 9.14518,7.1427 5.60896,1.05588 22.50697,-0.0487 25.63088,-1.67542 z m -1.35332,-34.95219 c 2.02441,-8.91881 2.04728,-8.49105 -0.54464,-10.18934 -1.36397,-0.89371 -4.85797,-1.90657 -7.76444,-2.2508 -6.51233,-0.77129 -9.42836,-3.26046 -8.61045,-7.35002 0.58783,-2.93914 -1.48457,-9.86144 -7.32281,-24.45984 -3.76216,-9.40721 -5.53499,-11.665 -8.98906,-11.44802 -4.14013,0.26008 -4.28864,0.0718 -2.11874,-2.68684 2.6627,-3.38507 2.61761,-5.61998 -0.17898,-8.87121 -4.30122,-5.00046 -14.3697,-4.33346 -18.75575,1.24249 -1.73939,2.21128 -1.7946,2.74596 -0.53504,5.18169 0.77247,1.49378 3.2483,3.54742 5.50185,4.56363 5.42767,2.44754 4.6281,4.05422 -1.927,3.87217 -3.68074,-0.10222 -6.15308,-0.80627 -8.23408,-2.34482 -2.31439,-1.71111 -3.74753,-2.05362 -6.46199,-1.54438 -6.66543,1.25044 -7.94357,-2.35967 -3.75905,-10.61742 5.13514,-10.13371 13.15188,-14.84729 25.25187,-14.84729 7.27117,0 8.20325,0.23993 11.78325,3.03323 2.13812,1.66827 4.92632,4.25577 6.19598,5.75 5.71595,6.72691 20.61151,41.49358 20.00468,46.6915 l -0.36806,3.1527 5.52745,-0.9007 c 6.36451,-1.0371 17.75059,-0.26563 21.53616,1.45919 2.25081,1.02554 2.54949,1.70465 2.28986,5.20639 -0.29335,3.95659 -0.39476,4.05467 -5.79857,5.6083 -4.82586,1.38746 -5.72676,2.06655 -7.34999,5.54034 -2.4075,5.15214 -5.51184,8.45905 -7.9409,8.45905 -1.49886,0 -1.82567,-0.51366 -1.43155,-2.25 z m 238.9274,-29.58605 c -14.25134,-5.07907 -22.34848,-18.95032 -20.79829,-35.62969 1.17633,-12.65682 7.33728,-22.29688 17.41173,-27.24417 5.02727,-2.46877 6.77568,-2.78675 15.1816,-2.76107 8.31943,0.0254 10.13623,0.36104 14.61974,2.70084 5.98783,3.12484 9.80769,7.32139 12.98922,14.27014 2.49757,5.45491 4.76401,17.36448 3.78838,19.90694 -0.53363,1.39062 -3.40722,1.59306 -22.61274,1.59306 l -22.00142,0 0.6749,2.68901 c 1.80128,7.17685 8.17409,11.43882 18.10848,12.11047 5.37742,0.36356 13.92285,-1.08707 19.72977,-3.34923 1.6432,-0.64013 1.77107,-0.0794 1.5,6.57773 l -0.29633,7.27751 -4,1.48009 c -2.43946,0.90265 -8.87668,1.63329 -16.5,1.87278 -10.40425,0.32686 -13.38777,0.0763 -17.79504,-1.49441 z m 23.79504,-41.76282 c 0,-3.10594 -3.30509,-8.50754 -6.08519,-9.94518 -6.36588,-3.29193 -14.48485,-0.98914 -17.27997,4.90113 -3.12866,6.59316 -3.04727,6.64292 10.86516,6.64292 10.78799,0 12.5,-0.21898 12.5,-1.59887 z m 206.25,41.4442 -8.25,-2.00166 0,-11.92184 0,-11.92183 8,0 8,0 0,5.4291 0,5.4291 5.67609,1.17836 c 13.36865,2.77532 22.32391,-0.42922 22.32391,-7.98837 0,-6.70422 -4.59963,-10.29943 -17.11271,-13.37581 -13.45365,-3.30762 -21.34201,-8.35309 -24.19065,-15.47254 -5.91938,-14.79399 -0.0471,-29.43771 13.84039,-34.51392 9.65499,-3.52913 30.16581,-2.92942 40.71297,1.1904 l 2.75,1.07418 0,10.52475 0,10.52475 -8,0 -8,0 0,-4.94098 c 0,-2.71754 -0.49697,-5.24813 -1.10439,-5.62353 -0.60741,-0.37541 -3.89862,-0.90685 -7.3138,-1.18099 -10.15062,-0.81479 -16.51942,3.93406 -15.13967,11.28878 0.84377,4.49767 4.15949,6.59879 14.95962,9.47971 16.08731,4.29127 22.5179,8.37555 26.3434,16.73154 2.15084,4.69806 2.4377,6.49447 2.03616,12.75126 -0.78068,12.16475 -7.45174,20.53705 -19.12647,24.00407 -7.3934,2.1956 -26.0178,1.85563 -36.40485,-0.66453 z m 81.25,0.56015 c -1.65,-0.90677 -4.05526,-2.60645 -5.34501,-3.77708 -4.80522,-4.36135 -5.15499,-6.2326 -5.15499,-27.57874 l 0,-20.04966 -4.54569,0 -4.54569,0 0.29569,-6.75 0.29569,-6.75 4.25,-0.3075 4.25,-0.3075 0,-6.4425 0,-6.4425 9,0 9,0 0,6.45956 0,6.45956 8.25,0.29044 8.25,0.29044 0.29569,6.75 0.29569,6.75 -8.54569,0 -8.54569,0 0,17.04545 c 0,17.00759 0.006,17.05121 2.59068,19.63614 2.40854,2.40854 3.0413,2.5486 9,1.99217 l 6.40932,-0.59851 0,6.40336 c 0,3.85121 -0.47158,6.69481 -1.18321,7.13462 -0.65076,0.40219 -5.71326,0.89094 -11.25,1.08609 -7.96545,0.28077 -10.69301,0.0107 -13.06679,-1.29384 z m 40.70372,-0.53367 c -6.5734,-3.25376 -9.54265,-7.83089 -10.02836,-15.4588 -0.34563,-5.42794 -0.0364,-6.97433 2.13539,-10.68028 4.4359,-7.5693 15.16621,-11.73273 30.23847,-11.73273 l 7.45076,0 -0.032,-4.25 c -0.052,-6.92233 -3.9084,-10.03571 -12.43159,-10.03571 -8.36604,0 -9.53659,0.71843 -9.53659,5.8531 l 0,4.43261 -7.5,0 -7.5,0 0,-8.89855 0,-8.89854 7.75,-2.85146 c 6.79108,-2.49864 9.04918,-2.84019 18.25,-2.76045 11.39458,0.0987 15.23328,1.21012 21.03148,6.08894 6.1606,5.1838 7.3674,9.68728 7.7902,29.07006 l 0.3762,17.25 2.9011,0 2.901,0 0,7.03383 0,7.03383 -10.75,-0.28383 -10.75,-0.28383 -0.3136,-3.80402 -0.3135,-3.80402 -1.9404,2.4667 c -5.2091,6.62232 -20.7128,8.97595 -29.72876,4.51315 z m 22.55542,-12.86641 c 3.74194,-2.28151 7.23164,-7.46768 7.23714,-10.7554 0,-2.12038 -0.4014,-2.25 -7.0284,-2.25 -8.66897,0 -13.64974,1.88426 -14.5592,5.50784 -1.89163,7.53682 6.82056,12.0886 14.35046,7.49756 z m 54.74084,14.33845 c -3.1258,-0.85586 -8.4793,-5.26241 -10.5814,-8.70968 -1.715,-2.81257 -1.9115,-5.21203 -1.9148,-23.38417 l 0,-20.25 -4.5457,0 -4.5457,0 0.2957,-6.75 0.2957,-6.75 4.25,-0.3075 4.25,-0.3075 0,-6.4425 0,-6.4425 9,0 9,0 0,6.45956 0,6.45956 8.25,0.29044 8.25,0.29044 0.2957,6.75 0.2957,6.75 -8.5457,0 -8.5457,0 0,17.04545 c 0,16.99737 0.01,17.05275 2.5847,19.63012 2.3813,2.38135 3.0893,2.54415 9,2.0697 l 6.4153,-0.51496 0,6.32583 c 0,3.73099 -0.4772,6.62078 -1.1634,7.04488 -1.4394,0.88958 -19.5954,1.49338 -22.3366,0.74283 z m 48.3442,-0.68028 c -13.1635,-4.90824 -19.9895,-13.24145 -21.8411,-26.66357 -2.2029,-15.96853 4.8674,-30.83841 17.602,-37.01933 6.3948,-3.10379 20.3814,-3.45066 27.5524,-0.6833 9.9297,3.832 17.3851,15.85896 18.5666,29.95139 l 0.566,6.75124 -22.5753,0 -22.5752,0 0.9113,3.25 c 1.1816,4.21414 6.7323,9.31841 11.6047,10.67135 5.4955,1.52596 12.7969,1.23642 20.6867,-0.82034 7.9203,-2.06475 7.9074,-2.07586 7.4617,6.41471 -0.302,5.75425 -0.3299,5.80139 -4.304,7.27491 -5.6475,2.09398 -28.7725,2.69379 -33.6558,0.87294 z m 21.8177,-44.35982 c -0.8813,-5.43076 -4.43,-8.47897 -10.5566,-9.06765 -7.2258,-0.69432 -11.8095,2.70437 -13.5054,10.0139 l -0.638,2.75 12.6499,0 12.6499,0 -0.5998,-3.69625 z m -594.66188,37.69625 0,-7 4,0 4,0 0,-30 0,-30 -4,0 -4,0 0,-6.5 0,-6.5 23.8185,0 c 26.68485,0 31.02631,0.71503 38.38737,6.32233 6.81741,5.19317 9.29757,10.58768 9.27682,20.17767 -0.0206,9.52249 -2.09808,14.30302 -8.65452,19.91508 -5.5019,4.70943 -11.84466,6.55258 -25.07817,7.28753 l -10.75,0.59701 0,9.29269 0,9.29269 4.25,0.3075 4.25,0.3075 0.29569,6.75 0.29569,6.75 -18.04569,0 -18.04569,0 0,-7 z m 48.74831,-44.42242 c 3.2979,-3.59864 3.45462,-4.09539 3.05125,-9.67183 -0.6821,-9.43001 -5.86441,-12.90575 -19.24238,-12.90575 l -5.55718,0 0,13.62232 0,13.62232 9.13593,-0.4368 c 9.08566,-0.43439 9.15505,-0.45766 12.61238,-4.23026 z m 98.25169,44.42242 0,-7 3,0 3,0 0,-19 0,-19 -4.04569,0 -4.04569,0 0.29569,-6.75 0.29569,-6.75 12,0 12,0 0.5,3.84241 0.5,3.8424 2.5,-2.68742 c 4.42698,-4.75886 7.77716,-5.92687 17,-5.92687 9.42522,0 12.51502,1.13051 17.76443,6.49974 6.09154,6.23057 6.7026,8.66281 7.06575,28.12415 l 0.33017,17.69442 3.66983,0.30558 3.66982,0.30559 0,6.5 0,6.5 -16.25,0.27477 -16.25,0.27477 0,-7.02477 0,-7.02477 3.5,0 3.5,0 0,-13.53212 c 0,-15.56434 -1.06501,-19.4159 -6.08683,-22.01278 -4.75033,-2.45649 -12.28733,-1.53465 -15.75221,1.92662 -2.6192,2.61649 -2.66599,2.90111 -2.98135,18.13824 l -0.3204,15.48004 3.5704,0 3.57039,0 0,7 0,7 -16,0 -16,0 0,-7 z m 83.20431,0.25 0.29569,-6.75 3.5,-0.5 3.5,-0.5 0,-18.75061 0,-18.75061 -4.29569,6.1e-4 -4.29569,6.1e-4 0.29569,-6.75 0.29569,-6.75 12,0 12,0 0.60809,4 c 0.33446,2.2 0.67196,3.47991 0.75,2.84424 0.29948,-2.4391 9.25947,-7.21502 14.84523,-7.91291 12.65875,-1.58161 23.16622,4.25856 27.23696,15.1386 1.76369,4.71387 2.05972,7.79932 2.05972,21.46758 l 0,15.96249 3.5,0 3.5,0 0,7 0,7 -16,0 -16,0 0,-7 0,-7 3.5,0 3.5,0 -0.022,-13.25 c -0.0257,-15.51618 -1.53146,-20.49395 -6.86791,-22.70438 -5.12655,-2.12349 -12.01806,-0.83227 -15.32769,2.87184 -2.78087,3.11238 -2.7824,3.12234 -2.7824,18.09832 l 0,14.98422 3.5,0 3.5,0 0,7 0,7 -16.54569,0 -16.54569,0 0.29569,-6.75 z m -474.62943,-49.5 c -3.74699,-5.73039 -5.83738,-12.41011 -6.32384,-20.20739 -0.43239,-6.93066 -0.19669,-8.72881 1.60776,-12.26583 2.67593,-5.24527 5.76299,-7.54956 8.29716,-6.19332 1.0157,0.5436 3.03527,3.33469 4.48791,6.20245 1.45265,2.86775 4.60204,8.4451 6.99865,12.39412 2.39662,3.94902 4.35748,8.0145 4.35748,9.03439 0,1.0199 -1.27833,2.60949 -2.84073,3.53242 -1.56239,0.92293 -4.71291,3.49496 -7.00114,5.71561 -4.6988,4.56003 -7.43648,5.07068 -9.58325,1.78755 z m 110.67512,-6.81291 c -2.8875,-2.21547 -5.25,-4.41724 -5.25,-4.89281 0,-1.11801 6.96617,-9.83917 10.33688,-12.94105 2.16542,-1.99273 2.86298,-2.18225 4.1378,-1.12424 2.27575,1.8887 3.27012,6.94524 2.34539,11.92672 -0.85551,4.60862 -3.63384,10.21125 -5.32924,10.74662 -0.54495,0.17209 -3.35333,-1.49977 -6.24083,-3.71524 z"
         id="path3044"
         inkscape:connector-curvature="0" />
      <path
         style="fill:#92b2d2"
         d="M 337.13492,915.76471 C 307.32244,896.96153 289.27621,883.6289 276.55596,871.00869 265.0406,859.5839 262.77087,855.27967 261.53654,842.52637 c -0.48022,-4.96171 -1.32011,-11.0463 -1.86642,-13.5213 -0.5463,-2.475 -1.28905,-10.125 -1.65054,-17 l -0.65726,-12.5 4.3863,-6.22934 c 2.41246,-3.42614 6.067,-8.60114 8.1212,-11.5 5.25399,-7.4144 6.11039,-12.92334 4.66533,-30.0105 -1.25274,-14.81302 -0.76114,-17.18045 3.43839,-16.55842 1.51795,0.22484 2.66182,2.14451 4.64675,7.79826 5.83285,16.614 7.40152,17.57967 34.73249,21.38134 18.3623,2.55415 23.43293,4.05514 24.7678,7.33167 2.93564,7.20577 6.51434,19.20859 6.51434,21.84885 0,1.75268 -0.675,5.09984 -1.5,7.43814 -1.80594,5.11859 -1.99718,17.10282 -0.3,18.8 1.85353,1.85353 8.63618,1.43344 19.92281,-1.23392 9.64064,-2.27837 10.5785,-2.72574 14.67461,-7 2.40667,-2.51134 4.77429,-4.56608 5.26138,-4.56608 0.48708,0 1.83696,2.2115 2.99974,4.91444 2.10574,4.89492 3.77853,6.16384 10.05093,7.62426 2.18843,0.50954 3.2106,-0.09 6.33495,-3.71556 7.17906,-8.33077 9.05838,-12.56048 9.02985,-20.32314 -0.0271,-7.37324 -0.35736,-8.27114 -8.74079,-23.76386 -2.01304,-3.72013 -3.44347,-7.32831 -3.17875,-8.01818 0.26473,-0.68986 2.48483,-2.46446 4.93356,-3.94355 6.96251,-4.20551 7.20381,-11.55453 0.46293,-14.09892 -2.85015,-1.07582 -2.97243,-1.35123 -2.37343,-5.34566 0.54657,-3.64481 0.28723,-4.55572 -1.92767,-6.77062 -3.03106,-3.03106 -7.44344,-3.35691 -10.62046,-0.78431 -1.97797,1.60166 -2.06797,2.06528 -0.92214,4.75 1.76064,4.1252 5.90753,8.4751 8.07957,8.4751 0.9971,0 1.81291,0.42961 1.81291,0.95469 0,1.1693 -6.43483,2.47616 -8.42742,1.71154 -1.76833,-0.67858 -9.54105,-14.47354 -9.55936,-16.96589 -0.0392,-5.33259 6.30816,-10.70491 12.63791,-10.6966 3.50756,0.005 8.68542,3.05408 10.88458,6.41042 0.90441,1.3803 1.89039,4.34378 2.19107,6.5855 0.62978,4.69539 2.32362,4.807 3.63359,0.2394 1.23883,-4.31956 0.28954,-7.19304 -4.24241,-12.84163 -3.86428,-4.81642 -3.89097,-4.90796 -2.15417,-7.38714 6.01063,-8.5798 5.44834,-22.68489 -1.18583,-29.74664 -2.62344,-2.79253 -5.67163,-2.84789 -13.33379,-0.24219 -9.36994,3.18648 -14.0011,6.16722 -13.63131,8.7735 0.39189,2.7621 -0.13348,2.74968 -9.04181,-0.21369 -10.53285,-3.50377 -26.93361,-5.71215 -45.60094,-6.14022 l -16.3299,-0.37447 -2.14273,-2.78329 c -1.17851,-1.53081 -4.58605,-5.37079 -7.57233,-8.53329 -4.37628,-4.63453 -6.04082,-5.75 -8.58037,-5.75 -3.95389,0 -10.23433,4.50196 -14.13969,10.13566 -2.54219,3.66726 -2.95008,5.25504 -3.26523,12.71066 -0.19807,4.68594 0.20474,11.82219 0.89514,15.85832 1.3664,7.98801 0.96086,9.50657 -1.85761,6.9559 -1.00918,-0.9133 -2.28961,-1.66054 -2.84539,-1.66054 -2.96171,0 -21.71223,30.11522 -25.90056,41.59889 -2.5014,6.8584 -2.6506,8.07886 -1.85575,15.17958 0.47539,4.24684 0.87784,11.77153 0.89433,16.72153 0.0278,8.34775 -0.24662,9.59961 -3.78672,17.27358 -2.09918,4.55047 -4.07056,9.83797 -4.38084,11.75 -0.31028,1.91203 -0.89051,3.47642 -1.2894,3.47642 -1.16983,0 -9.53506,-18.75859 -12.48637,-28 -6.46853,-20.25489 -6.73281,-23.30173 -7.23328,-83.39038 -0.37474,-44.99291 -0.21702,-55.04685 0.87471,-55.75817 1.95462,-1.27356 21.7932,-7.36465 33.33188,-10.23398 70.50347,-17.53214 156.49807,-14.36075 221.5,8.1687 l 5.5,1.90628 0,55.90378 c 0,54.44616 -0.0596,56.18184 -2.28457,66.56845 -7.09757,33.13245 -22.64255,60.33769 -50.04024,87.57538 -11.38022,11.31375 -29.38168,26.25994 -31.62796,26.25994 -2.27404,0 -6.68667,-2.39161 -8.87588,-4.81066 -1.00316,-1.10848 -2.85571,-4.55406 -4.11677,-7.65683 -1.97683,-4.86387 -2.38031,-5.32379 -2.92745,-3.33696 -1.36489,4.95634 -1.79292,16.57397 -0.80333,21.80445 0.96005,5.07435 0.877,5.62701 -1.0731,7.1412 -4.3146,3.35014 -26.65219,17.01694 -28.41918,17.38771 -1.00734,0.21136 -4.08152,-1.03481 -6.83152,-2.76927 z m 51.23538,-80.5718 c 4.69734,-2.45501 7.79626,-6.36003 6.9002,-8.69513 -1.52121,-3.96421 -14.22614,-4.85314 -28.13558,-1.96857 -13.82165,2.86636 -17.64091,5.4527 -13.99738,9.47876 2.56272,2.83176 8.67256,3.91755 20.49738,3.64263 8.58083,-0.19951 11.27413,-0.64872 14.73538,-2.45769 z m -2.1493,-33.04856 c -0.33021,-0.53429 -0.14717,-2.1635 0.40677,-3.62046 2.66135,-6.9999 0.78842,-9.13625 -9.2542,-10.55576 -3.32987,-0.47068 -6.42639,-1.44241 -6.88117,-2.15942 -0.45477,-0.717 -0.83375,-3.15512 -0.84217,-5.41803 -0.0211,-5.6775 -10.39917,-33.26875 -13.15393,-34.97128 -0.71728,-0.44331 -2.55452,-0.71073 -4.08276,-0.59428 -3.12048,0.23777 -3.37996,-0.44092 -1.24682,-3.26118 2.12555,-2.81023 1.80598,-5.89291 -0.87167,-8.40844 -5.27498,-4.95559 -12.95765,-4.58065 -18.19701,0.88806 -2.77433,2.89578 -2.8471,3.18891 -1.4291,5.75633 0.82174,1.48785 3.17525,3.52974 5.23003,4.53754 3.9083,1.91689 4.63576,3.10837 2.41754,3.95958 -2.11163,0.81031 -9.35472,-0.84775 -12.38936,-2.83612 -1.81427,-1.18876 -4.2442,-1.73818 -6.95118,-1.57172 -5.40862,0.33261 -6.25643,-1.88548 -3.32516,-8.6994 2.50987,-5.83436 6.67602,-10.06906 13.38305,-13.60326 3.96463,-2.08911 6.25323,-2.57468 12,-2.546 3.90558,0.0195 8.104,0.5927 9.32982,1.27381 8.07422,4.48633 14.25534,14.44645 23.74753,38.26623 5.87693,14.74761 6.23469,16.28205 4.27371,18.32987 -1.02269,1.06798 -0.61805,1.17183 2.2252,0.57109 1.91136,-0.40385 7.60832,-0.72025 12.65991,-0.7031 10.90239,0.037 14.71395,1.42853 15.18715,5.54452 0.43181,3.756 -1.01102,5.24044 -6.41653,6.60156 -3.42354,0.86206 -4.94665,1.89581 -6.21976,4.22141 -4.71564,8.61415 -7.95867,11.654 -9.59989,8.99845 z M 627.56427,771.7038 c -13.37328,-3.79922 -20.7646,-12.3086 -22.95524,-26.42763 -2.03667,-13.1267 3.02952,-27.54888 11.80646,-33.61001 6.80025,-4.69608 11.16628,-5.99812 20.2713,-6.04533 7.3664,-0.0382 9.33592,0.33927 14.20792,2.72291 9.6191,4.70619 15.32955,14.37503 16.46105,27.87157 l 0.56923,6.78976 -22.14503,0 -22.14504,0 0,2.35212 c 0,3.71586 4.11572,8.94559 8.96996,11.39788 5.75637,2.90803 16.2752,3.05194 24.9829,0.3418 l 6.13105,-1.9082 -0.29195,7.11747 -0.29196,7.11747 -4.5,1.36932 c -6.44522,1.96124 -25.41572,2.51739 -31.07065,0.91087 z m 21.07065,-42.74839 c 0,-2.89102 -2.5873,-7.54787 -5.21679,-9.38964 -1.30575,-0.91457 -4.32097,-1.5607 -7.28321,-1.5607 -2.96224,0 -5.97746,0.64613 -7.28321,1.5607 -2.62949,1.84177 -5.21679,6.49862 -5.21679,9.38964 0,1.9569 0.56572,2.04966 12.5,2.04966 11.93428,0 12.5,-0.0928 12.5,-2.04966 z m 212.5,43.02382 c -2.75,-0.506 -7.025,-1.51371 -9.5,-2.23936 l -4.5,-1.31937 -0.28174,-11.70771 -0.28173,-11.70772 7.98183,0 7.98183,0 0.29991,5.71302 c 0.29575,5.63392 0.34837,5.72381 3.7999,6.49162 6.62109,1.4729 16.32103,1.22233 19.64158,-0.50738 6.41199,-3.34008 6.43713,-12.6385 0.0448,-16.57501 -1.75251,-1.07923 -7.42691,-3.15203 -12.60976,-4.60622 -5.18285,-1.45418 -10.80785,-3.35688 -12.5,-4.22822 -9.57262,-4.9292 -13.57662,-11.63391 -13.57662,-22.73409 0,-11.90647 5.81587,-19.63975 17.34515,-23.06358 6.92805,-2.05741 26.13791,-1.87555 34.65485,0.32808 l 6.5,1.68178 0.28383,10.75 0.28383,10.75 -8.03383,0 -8.03383,0 0,-5.375 c 0,-5.22 -0.0901,-5.39302 -3.125,-6 -4.92824,-0.98565 -12.79984,-0.73068 -15.19074,0.49204 -5.79138,2.96174 -7.42051,9.77383 -3.43426,14.36013 1.67685,1.92927 5.30679,3.49021 14.25,6.12776 18.07048,5.32939 24.10031,10.08212 26.50694,20.89284 3.03606,13.63812 -3.27422,25.52435 -16.50694,31.09298 -4.71464,1.98403 -24.16567,2.82493 -32,1.38341 z m 76,-0.39701 c -4.76413,-1.75531 -10.01863,-7.42032 -10.88073,-11.73078 -0.3406,-1.703 -0.61927,-11.36512 -0.61927,-21.47137 l 0,-18.375 -4.5,0 -4.5,0 0,-6.5 0,-6.5 4.5,0 4.5,0 0,-7 0,-7 9,0 9,0 0,7 0,7 8.5,0 8.5,0 0,6.5 0,6.5 -8.5,0 -8.5,0 0,17.04545 c 0,16.92233 0.0184,17.06382 2.54129,19.58674 2.25494,2.25495 3.21289,2.50335 8.50182,2.20455 l 5.96053,-0.33674 -0.002,6.19098 c -10e-4,3.40504 -0.45663,6.47208 -1.01252,6.81563 -2.39005,1.47713 -18.5342,1.52777 -22.4893,0.0705 z m 43.34264,0.50758 c -7.94055,-2.5764 -12.40747,-7.63071 -13.44706,-15.21528 -0.90103,-6.57375 0.98537,-12.07745 5.55436,-16.20526 5.05935,-4.57082 11.92576,-6.6021 24.90284,-7.36697 l 10.3528,-0.6102 -0.6533,-4.09351 c -0.9321,-5.83971 -2.9472,-8.35348 -7.7285,-9.64096 -3.77404,-1.01625 -10.82227,-0.65783 -14.45163,0.73488 -0.87473,0.33567 -1.37215,2.11907 -1.37215,4.91956 l 0,4.39301 -7,0 -7,0 0,-8.47432 c 0,-8.24103 0.0757,-8.51259 2.75,-9.86452 6.76882,-3.42183 13.95425,-5.04083 22.25,-5.01331 10.12888,0.0336 15.30908,1.34466 20.67678,5.23298 6.8877,4.98945 7.7529,8.01612 8.3232,29.11917 l 0.5,18.5 3.25,0.31336 3.25,0.31336 0,6.43664 0,6.43664 -10.4882,0 -10.4881,0 -0.6409,-4.00738 -0.6408,-4.00737 -2.6002,2.60023 c -1.4301,1.43012 -3.9596,3.306 -5.621,4.16862 -3.44703,1.78971 -15.708,2.61879 -19.67814,1.33063 z m 19.07255,-13.83628 c 3.85039,-1.97123 7.08479,-7.27651 7.08479,-11.62078 l 0,-2.90353 -7.74998,0.69782 c -9.98079,0.89869 -13.64388,2.92194 -14.05353,7.76226 -0.56817,6.71332 7.19963,9.91371 14.71872,6.06423 z m 53.73999,13.36226 c -4.6894,-1.75659 -8.0336,-4.78103 -10.0988,-9.13322 -1.244,-2.62144 -1.5564,-7.21363 -1.5564,-22.87862 l 0,-19.59887 -4.5,0 -4.5,0 0,-6.5 0,-6.5 4.5,0 4.5,0 0,-7.03893 0,-7.03894 8.75,0.28894 8.75,0.28893 0.2957,6.75 0.2957,6.75 8.4543,0 8.4543,0 0,6.5 0,6.5 -8.5,0 -8.5,0 0,17.04545 c 0,16.92233 0.018,17.06382 2.5413,19.58674 2.255,2.25495 3.2129,2.50335 8.5018,2.20455 l 5.9606,-0.33674 0,6.19098 c -10e-4,3.40504 -0.4567,6.47208 -1.0126,6.81563 -2.3543,1.4551 -18.5262,1.53047 -22.3341,0.1041 z m 50.7517,0.0491 c -9.3662,-2.39574 -16.6761,-8.50506 -20.5321,-17.1598 -3.0144,-6.76597 -3.7004,-19.14829 -1.4832,-26.77493 5.3731,-18.4829 26.0853,-27.46969 44.8961,-19.47991 9.3179,3.95772 15.6807,14.60749 17.3293,29.00484 l 0.6584,5.75 -22.6377,0 c -17.4552,0 -22.6326,0.28617 -22.6157,1.25 0.059,3.37986 4.047,9.6295 7.5095,11.7695 5.0401,3.11494 16.4808,3.83653 25.1128,1.58392 3.3794,-0.88188 6.4375,-1.60342 6.7957,-1.60342 0.3583,0 0.5183,3.0193 0.3557,6.70955 l -0.2957,6.70955 -4.5,1.36335 c -6.4541,1.95538 -24.3698,2.46917 -30.5931,0.87735 z m 21.2398,-42.4098 c -0.2684,-0.9625 -0.7728,-2.74274 -1.1208,-3.95608 -1.1452,-3.9923 -6.1933,-7.29392 -11.1523,-7.29392 -6.2264,0 -9.8075,2.12793 -11.7496,6.98182 -0.8932,2.23226 -1.624,4.49955 -1.624,5.03842 0,0.5897 5.2024,0.97976 13.0674,0.97976 11.9644,0 13.0262,-0.14772 12.5793,-1.75 z M 530.32439,771.3612 c -0.37921,-0.3792 -0.68947,-3.28859 -0.68947,-6.4653 l 0,-5.77583 4.25,-0.3075 c 2.3375,-0.16913 4.1375,-0.645 4,-1.0575 -0.1375,-0.4125 -0.25,-14.025 -0.25,-30.25 l 0,-29.5 -4,0 -4,0 0,-6.5 0,-6.5 23.41091,0 c 25.81053,0 31.99611,1.02213 39.13429,6.46668 10.64104,8.11632 12.12583,27.25041 2.90649,37.45511 -5.57068,6.16608 -11.89335,8.36334 -25.95169,9.01876 l -12,0.55945 0,10 0,10 3.88012,0.5 3.88013,0.5 -0.004,6 -0.004,6 -16.93639,0.2728 c -9.31502,0.15004 -17.24666,-0.0375 -17.62586,-0.41667 z m 45.34326,-47.87306 c 5.97763,-3.09115 8.36236,-13.74697 4.31285,-19.27136 -3.21645,-4.38792 -7.93482,-6.20841 -16.09558,-6.21016 l -7.25,-0.002 0,13.5 0,13.5 8.04966,0 c 5.23932,0 9.07379,-0.5296 10.98307,-1.51693 z m 100.96727,42.10568 0,-6.46203 3.25,-0.31336 3.25,-0.31336 0.27139,-19.19146 0.27139,-19.19145 -4.27139,-0.30855 -4.27139,-0.30854 0,-6 0,-6 12.25,-0.28078 12.25,-0.28078 0,3.71787 0,3.71787 2.75,-2.57293 c 4.62681,-4.32889 9.17498,-6.06454 16.21338,-6.18727 8.37737,-0.14608 14.83009,2.30813 19.41661,7.38486 5.35107,5.923 6.62001,11.70847 6.62001,30.18266 l 0,15.8185 3.5,0 3.5,0 0,6.52539 0,6.5254 -15.75,-0.2754 -15.75,-0.27539 -0.29772,-6.25 -0.29771,-6.25 3.54771,0 3.54772,0 0,-14.54966 c 0,-19.76774 -2.01362,-23.45034 -12.82251,-23.45034 -4.74992,0 -5.76248,0.38499 -8.67636,3.29887 -2.81756,2.81756 -3.3962,4.24007 -3.96602,9.75 -0.36693,3.54812 -0.52494,10.50113 -0.35113,15.45113 l 0.31602,9 3.79608,0.31311 3.79608,0.31311 -0.29608,6.18689 -0.29608,6.18689 -15.75,0.27539 -15.75,0.2754 0,-6.46204 z m 83.69109,5.76901 c -0.3801,-0.3801 -0.69109,-3.28893 -0.69109,-6.46406 l 0,-5.77297 3.75,-0.31036 3.75,-0.31037 0.27139,-19.19146 0.27139,-19.19145 -4.27139,-0.30855 -4.27139,-0.30854 -0.29772,-6.25 -0.29771,-6.25 11.94072,0 c 12.72583,0 13.15471,0.17178 13.15471,5.26888 0,2.02704 0.10223,2.00966 2.75,-0.46763 4.91764,-4.601 9.20403,-6.18408 16.83067,-6.21603 8.73467,-0.0366 15.34731,2.98713 20.06802,9.17639 4.26248,5.5885 5.35131,11.54761 5.35131,29.28761 l 0,14.95078 3.5,0 3.5,0 0,6.5 0,6.5 -16,0 -16,0 0,-6.5 0,-6.5 3.5,0 3.5,0 0,-14.03212 c 0,-19.70654 -2.18192,-23.96788 -12.27217,-23.96788 -11.29322,0 -13.94643,4.81023 -13.5136,24.5 l 0.28577,13 3.79608,0.31311 3.79608,0.31311 -0.29608,6.18689 -0.29608,6.18689 -15.55891,0.27442 c -8.5574,0.15094 -15.8699,-0.0366 -16.25,-0.41666 z M 285.23242,714.93857 c -3.59189,-4.26872 -6.0113,-13.0559 -6.058,-22.00237 -0.0346,-6.62817 0.30405,-8.08853 2.72469,-11.75 3.98719,-6.03106 6.87538,-5.77803 10.4861,0.91866 1.51234,2.80488 4.88721,8.72671 7.49971,13.15961 2.6125,4.4329 4.75,8.62467 4.75,9.31504 0,0.69037 -2.1375,2.82765 -4.75,4.7495 -2.6125,1.92185 -5.84094,4.66017 -7.17431,6.08516 -3.12544,3.34019 -4.33198,3.26346 -7.47819,-0.4756 z m 110.68641,-6.13648 c -5.08917,-3.92947 -5.18222,-4.09299 -3.82369,-6.7201 0.76583,-1.48095 3.70424,-5.14159 6.52979,-8.13477 l 5.13738,-5.44215 1.9363,2.36078 c 2.74121,3.34214 2.52274,10.33765 -0.52745,16.88922 -1.34433,2.8875 -2.80243,5.21051 -3.24024,5.16224 -0.4378,-0.0483 -3.14324,-1.90012 -6.01209,-4.11522 z"
         id="path3042"
         inkscape:connector-curvature="0" />
      <path
         style="fill:#6da8d6"
         d="m 330.47571,911.21853 c -36.26841,-22.7171 -59.85568,-42.45144 -65.51519,-54.81343 -1.48608,-3.24603 -2.71726,-8.59244 -3.34346,-14.51903 -0.54515,-5.15955 -1.42357,-11.81653 -1.95206,-14.7933 -1.71508,-9.66056 -2.37181,-24.66864 -1.22359,-27.96244 0.59263,-1.70002 3.7358,-6.58617 6.98482,-10.8581 9.14566,-12.02506 9.66236,-13.31944 9.68716,-24.26716 0.0118,-5.225 -0.34591,-13.1 -0.795,-17.5 -0.66379,-6.50356 -0.53446,-8.37411 0.69143,-10 2.41972,-3.20926 4.80038,-0.77084 7.75058,7.93862 5.29104,15.62004 6.58896,16.29832 40.28266,21.05132 6.54948,0.9239 12.96178,2.0804 14.24954,2.57001 3.21071,1.22071 5.89551,5.95012 8.84714,15.58466 2.89406,9.44664 3.03786,11.81234 1.01259,16.65949 -0.81543,1.95159 -1.77576,6.0427 -2.13407,9.09135 -0.78767,6.70182 0.76214,11.17326 4.16902,12.02834 2.82073,0.70795 24.23019,-3.74286 28.41594,-5.9074 1.60192,-0.82838 3.70307,-2.84434 4.66922,-4.47991 3.15767,-5.3455 4.17966,-4.92885 8.39942,3.42427 1.09045,2.15857 2.70117,3.30977 5.94501,4.24895 2.44713,0.7085 5.15607,1.06388 6.01988,0.78972 0.86381,-0.27416 3.28366,-2.79311 5.37745,-5.59766 10.18246,-13.639 10.09371,-21.96953 -0.42597,-39.9817 -4.68544,-8.02258 -4.90181,-10.28496 -1.20331,-12.58163 5.50156,-3.4163 7.25,-5.58986 7.25,-9.01274 0,-3.75974 -2.91133,-7.32569 -5.98087,-7.32569 -1.76713,0 -1.91549,-0.47698 -1.37498,-4.42044 0.52829,-3.8543 0.27552,-4.7508 -1.97368,-7 -3.12265,-3.12265 -7.491,-3.37393 -10.80969,-0.6218 l -2.36078,1.95776 2.58717,4.79224 c 1.88563,3.49275 3.44483,5.05169 5.75,5.74904 4.64756,1.40594 3.85593,2.5432 -1.77028,2.5432 l -4.93311,0 -3.61608,-6.75 c -5.18398,-9.67675 -5.33881,-11.24521 -1.53745,-15.57472 3.34726,-3.81232 7.99355,-5.40064 12.49411,-4.27107 4.38171,1.09974 9.31487,7.00745 10.07298,12.06292 0.73167,4.87914 1.77315,5.67107 3.41748,2.59861 2.11221,-3.94671 1.17946,-8.19291 -3.02219,-13.75795 l -4.05736,-5.37394 2.67169,-5.46075 c 3.78795,-7.74229 3.83778,-16.0696 0.13887,-23.20612 -1.90502,-3.67546 -3.48575,-5.42713 -5.3109,-5.88522 -3.75513,-0.94247 -11.96782,1.19936 -18.88493,4.9251 -4.82796,2.60047 -5.95347,3.66751 -5.76179,5.46245 0.29408,2.75386 0.44532,2.75759 -8.16303,-0.20079 -10.22854,-3.51516 -26.68494,-5.76338 -45.57286,-6.22601 l -16.49769,-0.40408 -7.41142,-8.05446 c -8.01785,-8.71349 -10.70837,-10.36098 -14.54093,-8.90385 -3.79581,1.44317 -10.47556,7.95089 -12.78082,12.45167 -2.44582,4.77519 -2.83924,17.94874 -0.79101,26.48673 0.67354,2.8076 0.94173,5.8419 0.59598,6.7429 -0.55279,1.44054 -0.91739,1.36689 -3.02224,-0.61052 l -2.39362,-2.24868 -5.3812,7.34889 c -10.44821,14.26873 -17.92246,27.53105 -21.26499,37.73266 -1.36003,4.15091 -1.61207,7.01333 -1.10062,12.5 2.13967,22.9536 2.15883,22.63711 -1.92133,31.74967 -2.06037,4.60161 -4.24136,10.27906 -4.84664,12.61656 -0.60528,2.3375 -1.40965,4.25 -1.78749,4.25 -1.06845,0 -8.31691,-15.62342 -11.30936,-24.37634 -7.27772,-21.28725 -8.46467,-34.78577 -8.51365,-96.82083 l -0.0353,-44.69716 12.25,-3.9728 c 30.62093,-9.93066 62.4826,-15.42013 99.11821,-17.07714 51.90579,-2.34766 107.0847,5.01767 146.38179,19.53918 l 4.25,1.57051 0,49.4567 c 0,62.71951 -1.17073,73.93733 -10.11047,96.87788 -8.53016,21.88948 -20.11565,39.42482 -38.88953,58.86167 -13.31291,13.78303 -33.02115,30.64079 -35.8146,30.63459 -4.98014,-0.011 -10.82155,-6.53121 -13.26532,-14.80673 -2.14834,-7.27506 -3.41513,-2.45196 -3.45899,13.16953 -0.0353,12.57995 -0.21991,13.99353 -2,15.31592 -3.15854,2.3464 -25.34238,16.34224 -26.7733,16.89133 -0.71894,0.27588 -6.95009,-3.0329 -13.847,-7.35285 z M 385.088,836.89642 c 4.26466,-1.18401 10.54692,-6.70465 10.54692,-9.2683 0,-0.86732 -1.17018,-2.34368 -2.60041,-3.2808 -4.99873,-3.27529 -30.15762,-0.92692 -37.89632,3.53731 -5.14651,2.96887 -4.32523,6.35423 2.0967,8.64281 4.73615,1.68781 22.26634,1.92004 27.85311,0.36898 z m 1.38571,-34.38589 c -0.272,-0.272 -0.0319,-2.75328 0.53367,-5.51395 1.3228,-6.45746 0.089,-7.79549 -8.27887,-8.97828 -7.92796,-1.12061 -9.08665,-2.12228 -9.12188,-7.88567 -0.0311,-5.08647 -8.45533,-28.65441 -11.82794,-33.09026 -1.44795,-1.90442 -2.70419,-2.47399 -5.03645,-2.28349 -3.36658,0.27498 -3.98341,-0.78183 -1.60732,-2.75381 2.36928,-1.96633 1.8432,-6.77743 -1.03252,-9.44256 -5.13928,-4.76292 -13.0661,-3.96021 -18.44242,1.86757 -2.32203,2.51701 -2.38193,2.84935 -0.96953,5.37888 0.82797,1.48286 3.17798,3.59611 5.22224,4.69611 2.04425,1.1 3.71804,2.39322 3.71953,2.87383 0.005,1.62236 -10.60931,0.0373 -13.58893,-2.02926 -2.13746,-1.48246 -4.00899,-1.90263 -7.0606,-1.58514 -5.63517,0.58628 -6.35966,-1.74431 -2.84908,-9.16508 4.46757,-9.44366 14.13087,-15.59435 24.50018,-15.59435 7.63405,0 11.53739,1.6262 16.13595,6.72252 5.41646,6.00275 8.23667,11.34862 16.00562,30.33961 5.58847,13.66086 6.84939,17.66459 6.08875,19.33331 -0.94981,2.08372 -0.82357,2.10456 12.75053,2.10456 15.38163,0 17.3396,0.67673 16.82135,5.81398 -0.33562,3.32683 -1.45058,4.18169 -7.37612,5.65541 -3.5729,0.88859 -4.36954,1.64222 -6.46487,6.11584 -2.68782,5.73861 -6.40584,9.13568 -8.12129,7.42023 z m 241.66121,-30.8415 c -9.91544,-2.5886 -16.36967,-7.69529 -20.60837,-16.30566 -2.10189,-4.26973 -2.39163,-6.2515 -2.39163,-16.3583 0,-10.526 0.22565,-11.9275 2.66422,-16.54748 5.0319,-9.53315 11.82469,-14.45583 22.65839,-16.42035 11.46496,-2.079 21.36295,1.04364 28.51188,8.99497 4.88868,5.43739 7.58091,12.40463 8.39398,21.72286 l 0.54535,6.25 -22.26775,0 -22.26775,0 0.59477,3.66518 c 0.74888,4.61482 5.54353,9.68167 10.59317,11.19458 5.29855,1.58749 15.56941,1.42262 22.41243,-0.35976 3.16739,-0.825 5.96193,-1.5 6.2101,-1.5 0.24817,0 0.45121,2.90757 0.45121,6.46126 l 0,6.46126 -5.25,1.58503 c -7.18803,2.17015 -23.91728,2.80968 -30.25,1.15641 z m 20.49626,-42.91396 c -0.005,-2.86493 -3.29676,-8.30527 -5.85362,-9.67366 -1.94753,-1.04229 -5.57399,-1.48931 -9.87686,-1.21748 -3.58044,0.22618 -8.25596,5.1424 -8.93135,9.39114 l -0.59611,3.75 12.63084,0 c 12.43309,0 12.63078,-0.0352 12.6271,-2.25 z m 213.50374,43.20216 c -3.3,-0.51279 -8.025,-1.51833 -10.5,-2.23453 l -4.5,-1.3022 -0.28174,-11.70771 -0.28173,-11.70772 7.98183,0 7.98183,0 0.29991,5.68222 c 0.28273,5.35684 0.47168,5.73118 3.2999,6.53734 1.65,0.47031 6.5,0.91685 10.77777,0.9923 6.39095,0.11272 8.26169,-0.22412 10.49176,-1.88911 3.83075,-2.86007 4.98395,-7.51948 2.92809,-11.83066 -1.9411,-4.07053 -4.78885,-5.65792 -15.95554,-8.8939 -11.56703,-3.35199 -14.76604,-4.80232 -19.22179,-8.71452 -5.26035,-4.61864 -7.47637,-9.91942 -7.47637,-17.88367 0,-8.00717 2.19368,-13.19292 7.66907,-18.12931 6.04632,-5.45112 9.78015,-6.37212 25.78701,-6.36072 10.53005,0.007 15.42516,0.44816 19.75,1.77793 l 5.75,1.76797 0,10.51413 0,10.51413 -7.64075,-0.29207 -7.64075,-0.29206 -0.10925,-5 -0.10925,-5 -4.5,-1.19149 c -7.42146,-1.96503 -16.64374,0.28877 -18.97036,4.6361 -1.62094,3.02876 -1.20853,7.55825 0.93647,10.28517 2.25138,2.86217 4.4114,3.81212 15.53389,6.83161 13.62432,3.69868 21.6296,9.14595 24.68872,16.7997 1.67156,4.18215 1.32903,16.09719 -0.59332,20.63891 -2.48099,5.86156 -8.19399,11.20289 -14.55463,13.60774 -6.43197,2.43182 -21.92872,3.33803 -31.54077,1.84442 z m 76.53654,-0.0602 c -5.30111,-1.62213 -9.08027,-4.77725 -11.13111,-9.29307 -1.60533,-3.53485 -1.86453,-6.74015 -1.88347,-23.29143 l -0.022,-19.19246 -4.25,-0.3075 -4.25,-0.3075 -0.29772,-6.25 -0.29771,-6.25 4.54771,0 4.54772,0 0,-7.03893 0,-7.03894 8.75,0.28894 8.75,0.28893 0.10818,6.5 0.10818,6.5 8.68851,0.28961 8.68851,0.28962 -0.29669,6.21038 -0.29669,6.21039 -8.5,0.284 -8.5,0.284 0.29758,17.2022 c 0.27892,16.12366 0.43531,17.3488 2.49431,19.54051 1.92995,2.05433 2.95674,2.2989 8.45452,2.0138 l 6.25779,-0.32451 -0.002,6.14301 c -0.002,4.86419 -0.35692,6.27917 -1.70654,6.79707 -3.16791,1.21564 -16.7715,1.5191 -20.25902,0.45192 z m 42.46346,0.17933 c -13.25778,-3.1995 -18.77354,-18.82606 -10.40177,-29.46904 4.49404,-5.71325 17.70769,-9.60225 32.62555,-9.60225 3.9091,0 4.2762,-0.21739 4.2762,-2.53212 0,-9.75575 -8.65576,-14.63518 -20.24998,-11.4153 -3.616,1.00421 -3.75,1.20055 -3.75,5.49442 l 0,4.453 -7,0 -7,0 0,-8.53554 0,-8.53553 4.48113,-1.92084 c 7.64728,-3.27801 12.72232,-4.31756 21.0513,-4.31209 13.58085,0.009 21.59595,3.90713 25.93445,12.6134 2.4256,4.86757 2.5331,5.83882 2.5331,22.88694 l 0,17.80366 3.5,0 3.5,0 0,6 0,6 -10.5,0 c -10.2177,0 -10.5004,-0.0605 -10.5153,-2.25 -0.03,-4.41954 -1.4171,-4.95188 -4.5048,-1.72896 -4.6952,4.90069 -15.32404,7.13916 -23.97988,5.05025 z m 19.20148,-14.03081 c 3.5632,-2.17263 5.91,-6.01101 6.4445,-10.54048 0.3474,-2.94407 0.2614,-3.00585 -4.6144,-3.31371 -5.83749,-0.36859 -13.30545,1.30837 -15.78158,3.5438 -0.9883,0.89222 -1.75,3.00424 -1.75,4.85232 0,6.5873 8.82069,9.65352 15.70148,5.45807 z m 54.3351,13.85152 c -5.3011,-1.62213 -9.0803,-4.77725 -11.1311,-9.29307 -1.6054,-3.53485 -1.8646,-6.74015 -1.8835,-23.29143 l -0.022,-19.1925 -4.25,-0.3075 -4.25,-0.3075 -0.2977,-6.25 -0.2977,-6.25 4.5477,0 4.5477,0 0,-7 0,-7 8.4543,0 8.4543,0 0.2957,6.75 0.2957,6.75 8.7967,0.28961 8.7967,0.28962 -0.2967,6.21038 -0.2967,6.21039 -8.75,0.28893 -8.75,0.28894 0.043,13.71106 c 0.05,15.68166 0.9927,22.03318 3.5482,23.90181 1.0277,0.75146 4.4784,1.30926 8.0994,1.30926 l 6.3089,0 0,5.89301 c 0,4.6299 -0.3654,6.0332 -1.7045,6.54707 -3.1679,1.21564 -16.7715,1.5191 -20.259,0.45192 z m 51.1586,0.11018 c -10.0774,-2.14573 -18.427,-8.7506 -22.3912,-17.71246 -4.3147,-9.75397 -3.1051,-26.10018 2.6001,-35.13777 6.5086,-10.31027 19.9735,-15.66151 33.2407,-13.21051 14.3532,2.65164 22.6175,13.24925 24.8052,31.80856 l 0.6189,5.25 -22.6595,0 -22.6594,0 0.6169,3.08416 c 0.927,4.63521 4.4495,8.92832 9.0342,11.01041 5.1179,2.32426 17.2142,2.53242 24.19,0.41625 2.6999,-0.81904 5.267,-1.49404 5.7046,-1.5 0.4376,-0.006 0.6626,3.00848 0.5,6.69873 l -0.2957,6.70955 -4.5,1.33119 c -5.7228,1.69294 -23.1718,2.45129 -28.8048,1.25189 z m 19.8048,-41.98194 c 0,-0.53887 -0.7308,-2.80616 -1.624,-5.03842 -1.9692,-4.9216 -6.1239,-7.35345 -12.1723,-7.12467 -5.2892,0.20006 -8.5381,2.22037 -10.6175,6.60254 -3.086,6.50317 -3.0212,6.54031 11.4138,6.54031 7.821,0 13,-0.39032 13,-0.97976 z m -595.99998,35.03726 0,-5.9425 4.25,-0.3075 4.25,-0.3075 0.26466,-30.25 0.26467,-30.25 -4.51467,0 -4.51466,0 0,-6.5758 0,-6.5758 25.25,0.3258 c 24.79403,0.31992 25.34932,0.37278 30.75,2.92718 10.56787,4.99837 15.39584,12.59892 15.32815,24.13068 -0.0493,8.39308 -3.08391,14.83581 -9.17688,19.48307 -6.03259,4.60121 -12.68506,6.28487 -24.83277,6.28487 l -10.3185,0 0,10.5 0,10.5 4,0 4,0 0,6 0,6 -17.5,0 -17.5,0 0,-5.9425 z M 575.509,723.57019 c 8.13947,-4.20909 9.16218,-15.32236 2.03839,-22.15017 -2.81818,-2.70109 -3.69687,-2.94059 -11.97689,-3.26445 l -8.93558,-0.3495 0,13.43284 c 0,7.38805 0.3375,13.78293 0.75,14.21084 1.22064,1.26623 14.75503,-0.13736 18.12408,-1.87956 z m 101.12592,41.43488 0,-6 3.5,0 3.5,0 0,-19.5 0,-19.5 -4,0 -4,0 0,-6.5 0,-6.5 11.39301,0 c 12.29418,0 12.60699,0.14184 12.60699,5.71665 l 0,2.55307 2.00389,-2.54754 c 5.59265,-7.1099 20.0233,-9.39584 29.5317,-4.67806 6.15464,3.05374 10.92344,9.20619 12.37233,15.96211 0.60064,2.80072 1.09208,11.82006 1.09208,20.04299 l 0,14.95078 3.5,0 3.5,0 0,6 0,6 -16,0 -16,0 0,-6 0,-6 3.5,0 3.5,0 -0.0147,-14.75 c -0.0159,-15.88743 -0.55812,-18.12647 -5.22965,-21.59467 -3.41004,-2.53164 -11.30841,-2.64968 -15.00998,-0.22431 -4.30998,2.824 -5.24563,6.76041 -5.24563,22.06898 l 0,14 3.75,0.31037 3.75,0.31036 0,5.93964 0,5.93963 -16,0 -16,0 0,-6 z m 84,0 0,-6 3.5,0 3.5,0 0,-19.4425 0,-19.4425 -4.25,-0.3075 -4.25,-0.3075 -0.29772,-6.25 -0.29771,-6.25 12.04771,0 c 11.82273,0 12.04801,0.042 12.06303,2.25 0.0286,4.20082 1.40427,4.99673 3.95099,2.28587 4.60606,-4.90293 14.88431,-7.12808 24.16564,-5.23165 5.98283,1.22246 11.71369,6.11856 14.6489,12.51513 2.41398,5.26067 2.63865,6.95598 3.03889,22.93065 l 0.43219,17.25 3.37404,0 3.37404,0 0,6 0,6 -16,0 -16,0 0,-6 0,-6 3.5,0 3.5,0 0,-14.85212 c 0,-13.79973 -0.16155,-15.09288 -2.27993,-18.25 -4.65196,-6.93304 -16.1904,-7.24814 -21.13098,-0.57706 -1.86458,2.51766 -2.1256,4.47896 -2.42884,18.25 l -0.33975,15.42918 4.08975,0 4.08975,0 0,6 0,6 -16,0 -16,0 0,-6 z m -474.2285,-48.75 c -4.19147,-4.76775 -7.7715,-16.30656 -7.7715,-25.04833 0,-4.17544 4.57856,-12.93313 7.19577,-13.7638 1.04511,-0.33171 2.53981,-0.0723 3.32154,0.5765 1.23027,1.02103 6.46096,9.81597 13.87436,23.32851 l 2.10833,3.84289 -2.9198,2.15711 c -1.6059,1.18642 -5.10842,4.06962 -7.78338,6.40712 -5.49661,4.80317 -5.8922,4.9264 -8.02532,2.5 z m 112.66041,-5.32524 c -1.03294,-1.14138 -3.12768,-2.8134 -4.65499,-3.71561 -1.52731,-0.9022 -2.77692,-2.33735 -2.77692,-3.18923 0,-2.42699 9.8599,-14.01992 11.92408,-14.01992 4.53554,0 5.15737,10.99969 1.07429,19.0032 -2.33336,4.57375 -2.96799,4.79283 -5.56646,1.92156 z"
         id="path3040"
         inkscape:connector-curvature="0" />
      <path
         style="fill:#568ab9"
         d="m 328.85933,910.11176 c -17.24591,-10.86401 -28.57263,-18.915 -41.81309,-29.72058 -19.93161,-16.26624 -24.31091,-23.19742 -25.15928,-39.81991 -0.65728,-12.87844 0.66919,-18.68196 6.09743,-26.67731 10.08555,-14.85518 10.32197,-15.3672 11.5625,-25.04034 0.64786,-5.05175 1.4138,-9.56663 1.70208,-10.03308 0.97674,-1.5804 2.56591,0.3992 5.411,6.74036 1.98255,4.41873 3.72456,6.78045 5.78855,7.84778 4.44055,2.2963 23.37392,8.58047 25.87738,8.58896 2.81988,0.01 3.50346,-1.1933 4.82395,-8.48853 0.7282,-4.02301 1.59662,-6.09442 2.6392,-6.29521 1.26617,-0.24384 1.656,1.19058 2.10538,7.74685 0.62707,9.14876 2.7913,13.75484 9.73206,20.71253 6.25864,6.2739 11.10705,7.13409 24.23229,4.29924 13.78,-2.97627 16.9637,-4.37301 20.77331,-9.11355 3.57295,-4.44607 3.94919,-4.33504 7.26438,2.14371 1.75019,3.42032 3.11095,4.66985 6.23845,5.72853 5.55954,1.88194 7.43889,1.12335 11.84792,-4.78237 7.50286,-10.04979 9.33229,-17.93009 6.21419,-26.76774 -1.29546,-3.67173 -1.24594,-4.87912 0.5,-12.18907 2.45591,-10.28253 2.3983,-13.92781 -0.34751,-21.98696 -1.93413,-5.6768 -2.61742,-6.6187 -5.3953,-7.4373 -3.10208,-0.91413 -3.1671,-1.05214 -2.63045,-5.58337 0.49724,-4.19836 0.28483,-4.85487 -2.20415,-6.81271 -3.42257,-2.69219 -7.53195,-2.77298 -10.62392,-0.20886 l -2.36078,1.95776 2.58717,4.79224 c 1.88563,3.49275 3.44483,5.05169 5.75,5.74904 4.66307,1.41063 3.84989,2.5432 -1.82601,2.5432 l -4.98884,0 -4.02758,-8.01047 c -4.55852,-9.06644 -4.53573,-11.51509 0.14384,-15.45269 4.0904,-3.44184 8.80443,-4.13225 13.38226,-1.95993 3.99644,1.89644 7.46938,6.58466 7.47542,10.0913 0.009,5.16463 3.21065,7.42077 4.37345,3.08179 1.43762,-5.36445 0.63912,-8.55923 -3.42403,-13.6995 l -4.05432,-5.1291 2.48095,-5.2107 c 3.5868,-7.53329 4.14217,-12.66685 2.0797,-19.22395 -0.95006,-3.02052 -2.81942,-6.67017 -4.15413,-8.11034 -2.1442,-2.31363 -3.00265,-2.56315 -7.37336,-2.14318 -2.98806,0.28712 -8.01078,2.01778 -12.68557,4.37104 -6.47979,3.26188 -7.70019,4.26181 -7.50074,6.14573 0.13102,1.2375 0.028,2.25 -0.22895,2.25 -0.25693,0 -3.78922,-1.11518 -7.84953,-2.47818 -10.74209,-3.606 -25.84332,-5.67117 -45.06674,-6.1631 l -16.90702,-0.43265 -8.70048,-9.10721 c -8.02917,-8.40452 -8.92366,-9.05283 -11.59299,-8.40248 -6.8714,1.67413 -14.9039,10.73424 -16.36982,18.46403 -0.96146,5.06975 -0.27514,16.06146 1.55284,24.86959 0.75967,3.66051 -0.71062,4.3427 -3.64202,1.68982 -1.59252,-1.44121 -2.07594,-1.1028 -6.33913,4.43755 -6.42673,8.352 -14.19996,21.07219 -19.01886,31.12263 l -4.07551,8.5 0.36233,10.5 c 0.90965,26.36055 0.8836,26.61913 -3.6905,36.63532 -2.29451,5.02443 -4.17183,9.83537 -4.17183,10.69098 0,4.1628 -2.13577,1.73333 -6.24416,-7.10282 -5.27764,-11.35093 -8.95586,-22.33206 -11.46343,-34.22348 -1.60264,-7.60008 -1.79241,-14.52509 -1.79241,-65.40857 l 0,-56.90857 8.5,-2.88704 c 28.28323,-9.60644 65.57242,-16.09499 101.77414,-17.70931 51.7353,-2.30701 105.62223,4.94955 146.04956,19.66742 l 4.32369,1.57408 -0.40438,55.08599 c -0.4521,61.58661 -0.60957,63.31443 -7.71822,84.69112 -8.87991,26.7031 -22.90553,47.87631 -47.66535,71.95605 -11.88679,11.5603 -26.99343,23.93883 -29.21472,23.93883 -0.77476,0 -2.97579,-0.96855 -4.89119,-2.15233 -3.64523,-2.25287 -8.66208,-11.2023 -9.86488,-17.59767 -0.33618,-1.7875 -1.16489,-3.25 -1.84158,-3.25 -0.6767,0 -6.03466,4.9266 -11.90659,10.94801 -14.14778,14.50793 -16.63857,19.49289 -16.63969,33.30199 -4.3e-4,5.3625 -0.37385,9.75 -0.8298,9.75 -0.45596,0 -7.18192,-4.00199 -14.94658,-8.89331 z M 385.088,836.89642 c 4.26466,-1.18401 10.54692,-6.70465 10.54692,-9.2683 0,-0.86732 -1.21949,-2.37482 -2.70997,-3.35 -7.11044,-4.65215 -41.34542,1.12263 -41.27472,6.96225 0.0541,4.47128 6.41985,6.66517 19.48469,6.71523 5.5,0.0211 11.77888,-0.45556 13.95308,-1.05918 z m 2.02533,-39.70533 c 0.82735,-7.12851 0.13018,-7.87861 -8.62842,-9.28348 -3.4925,-0.56019 -6.72661,-1.39155 -7.18692,-1.84747 -1.5111,-1.49666 4.6282,-7.11308 8.83693,-8.0843 6.36045,-1.46776 21.08443,-1.17125 25.09725,0.50542 3.12362,1.30513 3.4965,1.84386 3.21788,4.64915 -0.35083,3.53243 -1.40206,4.35345 -7.53136,5.88206 -3.63752,0.90718 -4.48155,1.65128 -6.14917,5.42122 -2.0356,4.60181 -5.38524,8.57138 -7.23279,8.57138 -0.74903,0 -0.88364,-1.84848 -0.4234,-5.81398 z m 242.65333,-25.19507 c -9.96423,-2.11462 -18.11894,-8.27338 -22.36522,-16.89109 -1.9393,-3.93578 -2.26647,-6.18794 -2.2662,-15.59986 2.8e-4,-9.44998 0.33647,-11.74393 2.38581,-16.27943 2.93411,-6.49364 10.41484,-13.45365 16.79781,-15.62854 7.27717,-2.47959 19.65389,-2.11483 25.81606,0.76082 9.649,4.50283 15.94232,14.86929 17.19941,28.33115 l 0.5898,6.316 -22.14461,0 -22.1446,0 0,2.9652 c 0,3.63152 5.08438,9.75428 9.70226,11.68376 4.30421,1.79841 17.76167,1.7206 23.88881,-0.13814 2.69991,-0.81904 5.24643,-1.49404 5.65893,-1.5 0.4125,-0.006 0.75,2.89675 0.75,6.45044 l 0,6.46126 -5.25,1.57818 c -6.37442,1.9162 -22.62396,2.76237 -28.61826,1.49025 z m 18.53383,-44.74095 c -0.72804,-4.57995 -5.14398,-8.87392 -10.07786,-9.79952 -6.34767,-1.19083 -13.46697,3.93193 -15.00853,10.79952 l -0.61728,2.75 13.14989,0 13.14989,0 -0.59611,-3.75 z m 212.69463,44.34017 c -3.92689,-0.74928 -8.76439,-1.89849 -10.75,-2.5538 l -3.6102,-1.19147 0,-11.42245 0,-11.42245 7.9501,0 7.95009,0 0.29991,5.75 0.2999,5.75 6.88975,1.34259 c 11.99398,2.33723 19.86987,-0.37912 21.1684,-7.30086 1.372,-7.31338 -3.0934,-11.24817 -17.30807,-15.25142 -19.79281,-5.57421 -26.26716,-12.3122 -26.22254,-27.29031 0.0291,-9.77738 4.77535,-16.72871 14.47246,-21.19639 4.46921,-2.05906 6.48621,-2.30255 19,-2.29364 10.53005,0.007 15.42516,0.44816 19.75,1.77793 l 5.75,1.76797 0,10.47206 0,10.47207 -7.44774,0 -7.44774,0 -0.30226,-5.25 -0.30226,-5.25 -5.5972,-1.32969 c -10.3475,-2.45819 -18.9028,1.88543 -18.9028,9.59714 0,5.84834 3.39192,8.36597 16.35477,12.13919 16.49739,4.80207 21.69623,8.18158 25.09218,16.31124 2.19316,5.25025 2.01546,17.16737 -0.33308,22.33793 -2.43423,5.35922 -9.31471,11.1184 -15.57019,13.03276 -7.05079,2.15774 -22.52026,2.65461 -31.18348,1.0016 z m 77.39888,-0.0131 c -11.33616,-4.04592 -12.18016,-6.14368 -12.58217,-31.27314 l -0.32309,-20.19608 -4.17691,-0.30392 -4.17691,-0.30393 -0.29772,-6.25 -0.29771,-6.25 4.54771,0 4.54772,0 0,-7 0,-7 8.45431,0 8.45431,0 0.29569,6.75 0.29569,6.75 8.79669,0.28961 8.79669,0.28962 -0.29669,6.21038 -0.29669,6.21039 -8.75,0.28893 -8.75,0.28894 0.0239,14.21106 c 0.0261,15.5489 0.94045,21.48058 3.6123,23.43429 0.97956,0.71627 4.5157,1.27678 8.05497,1.27678 l 6.30887,0 0,5.91714 0,5.91713 -5.04922,1.08287 c -6.63567,1.42309 -12.58104,1.30549 -17.1917,-0.34007 z m 41.09445,-0.14679 c -8.31437,-2.55959 -13.82455,-11.72337 -12.33844,-20.51961 1.77219,-10.48947 9.90941,-15.4221 28.34326,-17.18115 l 12.14163,-1.15862 -0.015,-3.03545 c -0.044,-8.98895 -8.96766,-13.61203 -20.23524,-10.48287 -3.62328,1.00624 -3.75,1.19344 -3.75,5.54011 l 0,4.49869 -6.75,-0.29569 -6.75,-0.29569 -0.2874,-8.06155 -0.28739,-8.06154 4.78739,-2.17222 c 7.60014,-3.44846 13.6127,-4.47438 23.53931,-4.01648 10.00353,0.46144 14.76043,2.09686 19.29823,6.6347 5.5341,5.53406 5.9247,7.24074 6.2778,27.42709 l 0.3279,18.75 3.4221,0 3.4221,0 0,6 0,6 -10.5,0 -10.5,0 0,-4.08499 0,-4.08498 -4.5617,4.01535 c -6.7144,5.91023 -15.92063,7.56002 -25.58481,4.5849 z m 20.84795,-13.3898 c 3.444,-2.09993 5.6418,-5.60938 6.7575,-10.79048 l 0.6999,-3.25 -5.8294,0.0239 c -11.4994,0.0471 -17.57948,2.96317 -17.57948,8.43141 0,1.45734 1.03469,3.75109 2.29931,5.09722 2.89591,3.08255 9.03691,3.30206 13.65217,0.48799 z m 55.6388,14.06262 c -5.7142,-1.47132 -9.778,-4.5259 -12.0903,-9.08787 -2.1014,-4.14593 -2.25,-5.70869 -2.25,-23.66962 l 0,-19.23061 -4.25,-0.3075 -4.25,-0.3075 0,-6 0,-6 4.25,-0.3075 4.25,-0.3075 0,-6.9425 0,-6.9425 8.5,0 8.5,0 0,7 0,7 9.0477,0 9.0478,0 -0.2978,6.25 -0.2977,6.25 -8.75,0.28893 -8.75,0.28894 0.01,14.71106 c 0.01,15.83845 0.9934,21.60498 3.9725,23.1993 1.0397,0.55647 4.62,1.01177 7.9562,1.01177 l 6.0657,0 0,5.88337 c 0,5.25348 -0.2408,5.94881 -2.25,6.49464 -4.1014,1.11427 -15.2005,1.55142 -18.4097,0.72509 z m 49.1597,-0.44282 c -10.7709,-2.81818 -17.6355,-8.35668 -21.7611,-17.55735 -1.6129,-3.59678 -2.0831,-6.78883 -2.1514,-14.60293 -0.077,-8.78417 0.2274,-10.66871 2.5027,-15.5 5.7652,-12.24189 13.1279,-17.08539 27.0494,-17.7942 14.8302,-0.75507 23.2164,3.63532 28.8045,15.0798 2.833,5.80225 5.6353,18.96795 4.4465,20.89137 -0.2797,0.45267 -10.4383,0.82303 -22.5746,0.82303 l -22.066,0 0.6366,3.25 c 1.6058,8.19896 8.9673,12.75641 20.5753,12.73813 4.146,-0.007 10.0131,-0.67619 13.0381,-1.48813 3.025,-0.81194 5.6125,-1.4816 5.75,-1.48813 0.1375,-0.007 0.25,2.8957 0.25,6.44939 l 0,6.46126 -5.25,1.57818 c -7.24,2.17639 -22.9791,2.80035 -29.25,1.15958 z m 20.5,-41.64004 c 0,-2.54582 -3.4098,-9.05873 -5.4386,-10.38805 -8.17,-5.35316 -18.2867,-1.25563 -20.1718,8.17008 l -0.6396,3.19773 13.125,0 c 7.9026,0 13.125,-0.38984 13.125,-0.97976 z m -595.99998,34.97976 0,-6 4.5,0 4.5,0 0,-30.4425 0,-30.4425 -4.25,-0.3075 -4.25,-0.3075 0,-6 0,-6 21,-0.30042 c 28.27444,-0.40448 35.69626,1.13536 43.19932,8.96279 4.57839,4.77632 6.30068,9.65254 6.30068,17.83876 0,17.35035 -11.33973,25.99887 -34.08909,25.99887 l -9.91091,0 0,10.5 0,10.5 4,0 4,0 0,6 0,6 -17.5,0 -17.5,0 0,-6 z m 42.4212,-40.09985 c 8.60599,-2.3894 12.43061,-10.35177 8.96308,-18.66 -2.62507,-6.2897 -6.55873,-8.24015 -16.61868,-8.24015 l -7.7656,0 0,14 0,14 5.75,-0.006 c 3.1625,-0.003 7.51454,-0.49549 9.6712,-1.09427 z m 104.5788,40.09985 0,-6 3.5,0 3.5,0 0,-19.5 0,-19.5 -4,0 -4,0 0,-6.5 0,-6.5 11.48818,0 11.48818,0 0.63596,3.97704 0.63595,3.97705 1.85358,-2.35644 c 1.01947,-1.29605 3.99219,-3.36171 6.60604,-4.59037 6.44856,-3.03118 19.0238,-2.57229 24.64076,0.89918 9.0249,5.57769 11.65135,13.53585 11.65135,35.30364 l 0,14.7899 3.5,0 3.5,0 0,6 0,6 -16,0 -16,0 0,-6 0,-6 3.5,0 3.5,0 0,-15.4652 0,-15.46521 -3.00704,-3.42482 c -5.31964,-6.05875 -15.65164,-5.73627 -20.19267,0.63023 -2.11423,2.96415 -2.32777,4.4585 -2.64004,18.475 l -0.33975,15.25 4.08975,0 4.08975,0 0,6 0,6 -16,0 -16,0 0,-6 z m 84,0 0,-6 3.5,0 3.5,0 0,-19.5 0,-19.5 -4,0 -4,0 0,-6.5 0,-6.5 11.5,0 11.5,0 0,4.10359 0,4.10359 3.67727,-3.22868 c 5.12754,-4.50204 9.23732,-5.9785 16.64139,-5.9785 11.39222,0 17.93928,3.74002 22.35833,12.77223 2.59145,5.29673 2.7424,6.4177 3.05018,22.65014 l 0.32381,17.07763 3.47451,0.31037 3.47451,0.31036 0,5.93964 0,5.93963 -16,0 -16,0 0,-6 0,-6 3.56881,0 3.56881,0 -0.31881,-16.08444 -0.31881,-16.08444 -3.20578,-2.86195 c -3.97497,-3.54865 -8.60674,-4.48846 -13.69871,-2.77955 -7.15787,2.40224 -8.05038,4.77562 -8.4159,22.37982 l -0.3204,15.43056 3.48158,0 3.48157,0 0.33882,6.00182 0.33882,6.00182 -15.75,-0.002 -15.75,-0.002 0,-6 z m -432.5,-18.56864 c -1.65,-0.85598 -3.3791,-1.9298 -3.84244,-2.38628 -0.46335,-0.45648 -2.50702,-0.6067 -4.54149,-0.33382 -2.61977,0.35138 -4.08213,0.0346 -5.01198,-1.08584 -1.10702,-1.33387 -0.83921,-2.59429 1.70757,-8.03664 4.92767,-10.53018 14.66928,-16.1732 26.60769,-15.41302 5.39531,0.34355 7.14189,0.92874 10.22876,3.42715 6.18097,5.00268 7.71231,7.66234 6.90117,11.98609 -0.77706,4.14209 -6.23506,10.411 -9.06429,10.411 -1.59297,0 -1.60008,-0.1754 -0.1,-2.46482 2.35886,-3.60008 2.00598,-7.26834 -0.96401,-10.02083 -5.14725,-4.77031 -12.5391,-4.13182 -17.98607,1.55359 -2.75275,2.87325 -2.82076,3.15461 -1.38448,5.72688 0.83078,1.48785 3.18308,3.60518 5.22734,4.70518 2.04425,1.1 3.71804,2.3375 3.71953,2.75 0.005,1.36641 -8.44514,0.76474 -11.4973,-0.81864 z m -41.80682,-30.2179 c -2.91778,-3.22411 -5.73912,-11.01271 -6.91723,-19.09575 -1.03348,-7.09068 -0.96254,-8.37752 0.6602,-11.97612 2.5303,-5.61121 6.15407,-8.88984 8.31741,-7.52524 1.77989,1.12272 16.06162,25.05661 16.17732,27.1106 0.038,0.67482 -1.16838,2.00239 -2.68088,2.95017 -1.5125,0.94777 -4.86822,3.65814 -7.45716,6.02305 -5.30606,4.8469 -5.83831,5.01206 -8.09966,2.51329 z m 112.73873,-5.2887 c -1.03294,-1.14138 -3.12768,-2.8134 -4.65499,-3.71561 -1.52731,-0.9022 -2.77692,-2.33735 -2.77692,-3.18923 0,-2.46756 9.86146,-14.01992 11.96785,-14.01992 4.43304,0 5.01111,11.20059 0.98533,19.09177 -2.28692,4.48273 -2.93006,4.69625 -5.52127,1.83299 z"
         id="path3038"
         inkscape:connector-curvature="0" />
      <path
         style="fill:#4379b0"
         d="M 332.94111,912.60547 C 300.99058,892.607 275.92196,872.87602 268.1775,861.63141 c -4.54724,-6.60238 -6.50579,-14.20659 -6.52696,-25.34139 -0.0203,-10.69695 1.78718,-15.85232 9.11429,-25.99563 6.39941,-8.85903 8.86375,-14.45448 8.8811,-20.16505 0.0186,-6.11145 1.17384,-11.12427 2.56376,-11.12427 0.72219,0 2.51409,2.67621 3.98199,5.94713 1.4679,3.27092 3.46408,6.66674 4.43595,7.54628 0.97188,0.87953 7.7774,3.63364 15.12339,6.12025 l 13.35635,4.52111 1.74016,-2.14901 c 0.95709,-1.18195 2.02612,-4.30465 2.37562,-6.93933 1.19311,-8.99412 4.4079,-9.53079 4.41735,-0.73741 0.008,7.52896 1.66291,12.49071 6.17158,18.50458 7.60246,10.14051 12.85536,11.48395 30.22161,7.72926 13.59215,-2.93872 14.62504,-3.39645 18.17927,-8.05629 1.46264,-1.91761 3.23319,-3.48657 3.93456,-3.48657 0.70136,0 2.33545,2.1375 3.63131,4.75 1.98222,3.99626 3.04404,4.96765 6.69146,6.12162 5.91897,1.87263 7.81105,0.79804 13.65541,-7.75548 4.02576,-5.8919 4.92091,-8.03548 5.30878,-12.71267 0.2566,-3.09418 -0.11286,-8.04097 -0.821,-10.99286 -1.12025,-4.66969 -1.05531,-6.35322 0.49971,-12.9564 3.10773,-13.19654 0.36831,-26.36689 -6.04135,-29.04501 -3.07473,-1.28471 -3.22337,-1.58243 -2.70811,-5.42398 0.95659,-7.13195 -5.12649,-11.0393 -12.18176,-7.8247 -2.96889,1.35271 -3.14998,2.74814 -0.92646,7.13914 2.42734,4.79351 4.42924,6.70034 7.0344,6.70034 1.28975,0 2.34501,0.45 2.34501,1 0,1.78501 -8.55073,1.15818 -10.23101,-0.75 -2.80832,-3.18923 -7.05905,-12.70455 -6.97691,-15.61792 0.15643,-5.54839 8.37625,-10.63187 14.64663,-9.05811 4.03799,1.01347 9.56129,7.83375 9.56129,11.80647 0,4.3433 2.39151,6.62505 3.93026,3.74987 2.67595,-5.00006 1.03782,-11.06972 -4.65936,-17.26409 l -2.42238,-2.63377 2.7572,-5.36623 c 2.21027,-4.30174 2.77081,-6.77004 2.82575,-12.44312 0.0603,-6.22297 -0.30116,-7.67095 -2.99526,-12 l -3.06379,-4.9231 -5.93621,0.0922 c -4.59623,0.0714 -7.71085,0.91482 -13.79799,3.73658 -7.30121,3.38456 -7.81679,3.82363 -7.23095,6.15784 0.73385,2.92387 0.1248,3.05151 -4.78062,1.00189 -10.45139,-4.36691 -32.43461,-7.48851 -52.736,-7.48851 l -12.62161,0 -6.21844,-7.51772 c -6.79654,-8.21661 -10.88054,-10.99276 -14.74469,-10.02292 -2.99013,0.75047 -11.93318,8.91917 -13.87437,12.67303 -2.8544,5.51979 -2.77578,17.30898 0.20749,31.11761 0.67407,3.12004 -0.85833,3.67356 -3.32931,1.20257 -1.39657,-1.39656 -1.7419,-1.37219 -3.54223,0.25 -3.61885,3.26078 -16.54613,23.61801 -21.45011,33.77855 -5.32443,11.03166 -5.19379,9.87687 -4.18796,37.01888 0.36759,9.91926 0.33743,10.07266 -3.73546,19 -2.25833,4.95 -4.45453,10.35 -4.88045,12 -0.74588,2.88953 -0.93506,2.6686 -5.13768,-6 -5.82792,-12.02103 -10.03817,-25.32616 -12.41665,-39.23875 -1.77779,-10.39896 -1.95918,-16.39651 -1.95918,-64.77791 l 0,-53.31792 4.25,-1.56187 c 24.06359,-8.84329 58.18319,-15.72753 92.69833,-18.70355 19.94991,-1.72015 67.36711,-0.61001 86.88744,2.03423 24.2581,3.28603 45.99552,8.09855 66.51184,14.72529 l 10.8476,3.50376 -0.48975,55.16836 c -0.52579,59.22683 -0.65529,60.89423 -6.22616,80.16836 -7.70846,26.66979 -24.80905,53.23795 -49.5792,77.02826 -9.10265,8.74257 -25.17449,22.24838 -27.58011,23.17666 -0.649,0.25044 -2.81419,-0.32013 -4.81152,-1.26792 -4.39195,-2.08412 -8.96837,-9.53312 -10.55912,-17.187 -0.60013,-2.8875 -1.48051,-5.25 -1.9564,-5.25 -0.47589,0 -5.85309,5.0625 -11.94932,11.25 -14.33574,14.55035 -16.88566,19.34687 -17.85367,33.58356 l -0.68996,10.14734 -10.19381,-6.3805 z m 53.47593,-76.15345 c 4.88935,-2.0424 9.21788,-6.27459 9.21788,-9.01272 0,-3.43874 -4.99361,-4.96642 -15.5,-4.74188 -9.88877,0.21134 -23.73944,3.30938 -26.67571,5.96666 -3.47566,3.14543 -1.87143,6.60348 3.86178,8.32442 5.12938,1.5397 25.00306,1.17326 29.09605,-0.53648 z m 0.21788,-35.20355 c 0,-0.96613 0.43015,-3.25644 0.95588,-5.08957 1.418,-4.94427 -1.70342,-7.69603 -9.79517,-8.63518 -3.39037,-0.39349 -6.3915,-1.08306 -6.66919,-1.53237 -0.27769,-0.44932 0.63364,-2.17001 2.02518,-3.82376 3.01687,-3.58534 9.07749,-5.16523 19.78252,-5.15694 9.78629,0.008 14.51601,1.41004 15.30083,4.53704 0.98586,3.92797 -0.11439,5.17428 -6.10544,6.91592 -4.95959,1.44179 -5.82029,2.08382 -7.15899,5.34014 -1.53045,3.72272 -6.00958,9.20132 -7.52271,9.20132 -0.4471,0 -0.81291,-0.79047 -0.81291,-1.7566 z m 244.46632,-29.32095 c -11.00343,-1.84438 -19.44202,-7.9921 -23.60305,-17.1954 -2.00244,-4.42896 -2.36327,-6.83024 -2.36327,-15.72705 0,-9.48121 0.27227,-11.05446 2.80615,-16.21444 3.52612,-7.18058 10.34764,-13.3083 17.0214,-15.29019 5.7762,-1.71535 16.49175,-1.95107 21.79008,-0.47934 11.34851,3.15231 18.85039,14.18608 20.55612,30.23397 l 0.61116,5.75 -22.66151,0 -22.6615,0 0.64751,2.75 c 2.18101,9.26287 9.46638,13.78877 21.89059,13.59913 4.4712,-0.0683 9.98495,-0.82741 12.5,-1.72107 2.475,-0.87942 4.8375,-1.6055 5.25,-1.61351 0.4125,-0.008 0.75,2.89311 0.75,6.44691 l 0,6.46145 -4.25,1.15575 c -9.70288,2.63862 -19.66674,3.28816 -28.28368,1.84379 z m 17.53368,-43.78759 c 0,-5.31082 -6.65004,-11.1392 -12.70034,-11.13112 -5.52914,0.007 -11.27217,5.09313 -12.69974,11.24626 l -0.63802,2.75 13.01905,0 13.01905,0 0,-2.86514 z m 215.81019,43.82217 c -3.6794,-0.42907 -9.20648,-1.51173 -12.2824,-2.40593 l -5.59259,-1.62581 0.2824,-11.21264 0.2824,-11.21265 7.75,-0.29206 7.75,-0.29207 0,5.93941 0,5.93941 6.33191,1.10266 c 8.36898,1.45739 12.04294,1.3907 16.06952,-0.29172 4.0774,-1.70364 6.59857,-5.1018 6.59857,-8.89388 0,-6.43251 -4.10919,-9.63138 -17.11997,-13.32735 -16.69564,-4.74273 -23.46751,-9.71769 -25.79171,-18.94791 -3.39315,-13.47542 1.49954,-24.42043 13.17004,-29.46154 8.85416,-3.82458 27.2956,-3.79648 40.99164,0.0625 l 3.75,1.05659 0,10.45299 0,10.453 -7.5,0 -7.5,0 0,-4.96482 c 0,-5.66292 -0.8311,-6.4376 -8.0711,-7.5232 -9.68242,-1.45186 -16.9289,3.03694 -16.9289,10.48649 0,4.70758 3.62457,8.58281 9.38387,10.03281 26.07714,6.56534 33.62343,12.83635 33.61055,27.93058 -0.007,8.47526 -1.2356,12.66805 -5.07505,17.32254 -7.20162,8.7304 -20.5612,11.95215 -40.10918,9.6726 z m 75.7791,-0.0247 c -5.83472,-1.44401 -10.15296,-4.51448 -12.23283,-8.69808 -1.58528,-3.18877 -1.90374,-6.6922 -2.18017,-23.98424 l -0.32371,-20.25 -3.92629,0 -3.92629,0 0,-6 0,-6 3.95431,0 3.95431,0 0.29569,-6.75 0.29569,-6.75 8.25,-0.29044 8.25,-0.29044 0,7.04044 0,7.04044 8.5,0 8.5,0 0,5.95956 0,5.95956 -8.25,0.29044 -8.25,0.29044 -0.27698,14.79295 c -0.34293,18.31532 0.5433,22.29364 5.42017,24.33133 2.37334,0.99164 4.96835,1.2566 7.94109,0.81081 l 4.41572,-0.66219 0,6.00514 c 0,5.39875 -0.2272,6.06039 -2.25,6.55231 -4.93737,1.20072 -14.46526,1.51653 -18.16071,0.60196 z m 41.75095,0.16425 c -10.76526,-2.74963 -16.30682,-11.34215 -14.32046,-22.20473 1.04543,-5.71702 3.73791,-8.91015 10.40523,-12.34003 5.19521,-2.67258 6.85624,-2.98831 17.76797,-3.37735 l 12.037,-0.42917 -0.4768,-4.96168 c -0.6639,-6.90991 -3.8291,-9.9611 -10.93825,-10.54433 -2.92321,-0.23982 -6.88993,-0.0281 -8.81493,0.47057 -3.22283,0.83481 -3.52435,1.23856 -3.8075,5.09838 l -0.3075,4.19176 -6.9425,0 -6.9425,0 0,-7.87686 0,-7.87685 4.75,-2.02438 c 7.62359,-3.24907 12.25622,-4.21039 20.3185,-4.21633 9.79288,-0.007 17.03098,2.18609 21.98538,6.66205 5.7951,5.23557 6.9461,10.20892 6.9461,30.01387 l 0,16.3185 3.5,0 3.5,0 0,6 0,6 -10.5,0 -10.5,0 0,-4 c 0,-2.2 -0.254,-4 -0.5645,-4 -0.3106,0 -1.6589,1.30047 -2.9963,2.88993 -4.2491,5.0498 -16.38799,8.17614 -24.09894,6.20664 z m 20.53844,-15.48039 c 2.5054,-2.40026 5.1213,-8.26538 5.1213,-11.48221 0,-1.52388 -12.42684,-1.39712 -16.90632,0.17246 -1.87348,0.65646 -4.30245,2.4024 -5.3977,3.87987 -1.75663,2.36966 -1.84062,3.05024 -0.71252,5.7737 1.75615,4.23973 3.6492,5.15519 9.78869,4.73371 4.07192,-0.27954 5.91735,-0.98014 8.10655,-3.07754 z m 53.7645,15.32733 c -5.6059,-1.3905 -9.4833,-3.96526 -11.9622,-7.94351 -2.0264,-3.25198 -2.2038,-4.97043 -2.5034,-24.25 l -0.3224,-20.75 -3.9276,0 -3.9276,0 0,-6 0,-6 3.9543,0 3.9543,0 0.2957,-6.75 0.2957,-6.75 8.25,-0.29044 8.25,-0.29044 0,7.04044 0,7.04044 8.5,0 8.5,0 0,5.95956 0,5.95956 -8.25,0.29044 -8.25,0.29044 -0.3046,15 c -0.3715,18.29481 0.4765,22.04714 5.4523,24.12614 2.369,0.98986 4.9654,1.2545 7.9366,0.80895 l 4.4157,-0.66219 0,6.00514 c 0,5.39875 -0.2272,6.06039 -2.25,6.55231 -4.915,1.19528 -14.4572,1.51841 -18.1068,0.61315 z m 51.0073,0.008 c -6.5646,-1.1015 -14.9731,-5.36097 -18.2644,-9.25213 -6.6029,-7.80641 -9.3455,-19.08222 -7.4191,-30.50301 2.1276,-12.61393 9.0037,-21.03255 20.2223,-24.75877 6.5619,-2.17952 19.6029,-1.61451 25.2677,1.09474 9.2478,4.42286 15.3,14.71773 16.2951,27.71813 l 0.5166,6.75 -22.1343,0 c -21.6465,-4.8e-4 -22.1344,0.0447 -22.1344,2.04918 0,5.95358 6.6557,12.25424 14.787,13.99807 5.3227,1.14153 15.962,0.13879 21.7084,-2.04599 1.4491,-0.55096 2.8305,-1.00174 3.0697,-1.00174 0.2392,0 0.4349,2.8901 0.4349,6.42245 0,6.36197 -0.031,6.43242 -3.25,7.4813 -4.1924,1.3659 -16.2462,3.08469 -20.75,2.95882 -1.925,-0.0538 -5.6823,-0.46398 -8.3495,-0.91153 z m 17.963,-44.20104 c -0.9418,-4.80832 -3.7762,-8.06686 -8.4541,-9.71917 -3.6584,-1.29222 -4.6673,-1.29222 -8.3768,0 -4.6261,1.61153 -8.7826,6.63625 -8.7826,10.61705 0,2.35002 0.012,2.35212 13.125,2.35212 l 13.125,0 -0.6365,-3.25 z m -595.61348,37.24952 0,-6 4.5,0 4.5,0 0,-30.4425 0,-30.4425 -4.25,-0.3075 -4.25,-0.3075 0,-6 0,-6 24,0.007 c 27.54723,0.008 31.63797,0.81394 39.11865,7.70939 5.77507,5.32327 7.70608,10.68208 7.23203,20.06983 -0.53439,10.58242 -3.96404,15.95693 -13.18447,20.66105 -6.3545,3.24196 -7.46759,3.47237 -18.71132,3.87325 l -11.95489,0.42599 0,10.37674 0,10.37675 4,0 4,0 0,6 0,6 -17.5,0 -17.5,0 0,-6 z m 46.44113,-41.36947 c 6.09081,-3.99085 8.10844,-11.56279 4.88891,-18.34746 -2.6357,-5.55433 -6.43659,-7.27496 -16.08004,-7.27933 l -8.25,-0.004 0,14.1254 0,14.1254 8.39339,-0.44054 c 5.67932,-0.29809 9.2517,-1.00292 11.04774,-2.17973 z m 100.55887,41.36947 0,-6 3.5,0 3.5,0 0,-20 0,-20 -4,0 -4,0 0,-6 0,-6 11.5,0 11.5,0 0.0153,2.75 c 0.008,1.5125 0.41006,3.37329 0.89252,4.1351 0.70498,1.11318 1.09122,0.98519 1.96738,-0.65193 0.5996,-1.12037 3.43633,-3.20616 6.30383,-4.6351 11.53754,-5.7494 26.1905,-2.20426 32.31609,7.81855 2.9931,4.89735 3.00683,4.98943 3.50487,23.5 l 0.5,18.58338 3.75,0.31037 3.75,0.31036 0,5.93964 0,5.93963 -15.75,6.7e-4 -15.75,6.8e-4 0.13207,-5.75068 c 0.13161,-5.73086 0.14366,-5.75239 3.5,-6.25067 l 3.36793,-0.5 -0.004,-14.5 c -0.004,-16.61052 -0.93347,-19.55596 -7.09151,-22.47815 -4.25644,-2.01981 -10.08193,-1.61866 -14.02643,0.96588 -4.37051,2.86388 -5.37805,7.07514 -5.37805,22.48015 l 0,14.03212 3.41118,0 3.41118,0 0.33882,6.00182 0.33882,6.00182 -15.75,-0.002 -15.75,-0.002 0,-6 z m 84,0 0,-6 3.5,0 3.5,0 0,-20 0,-20 -4,0 -4,0 0,-6 0,-6 11.5,0 11.5,0 0,4 c 0,2.2 0.16205,4 0.36012,4 0.19807,0 1.93434,-1.48468 3.85838,-3.29928 8.58946,-8.10091 26.4182,-7.58125 34.38633,1.00225 5.45984,5.8815 5.84366,7.52191 6.38693,27.29703 l 0.50824,18.5 3.75,0.31037 3.75,0.31036 0,5.93964 0,5.93963 -16,0 -16,0 0,-6 0,-6 3.5,0 3.5,0 0,-15.51469 0,-15.51468 -3.28435,-3.58385 c -4.10183,-4.47587 -10.22174,-5.52392 -15.71565,-2.69133 -5.88618,3.03483 -6.99666,6.69301 -6.99845,23.05455 l -0.002,14.25 3.5,0 3.5,0 0,6 0,6 -15.5,0 -15.5,0 0,-6 z m -433,-19.25374 c -2.30146,-1.47705 -5.04098,-2.24626 -8,-2.24626 -4.26957,0 -4.51469,-0.15362 -4.78693,-3 -0.47556,-4.97216 5.22536,-13.08954 12.19955,-17.37059 5.46046,-3.35186 6.50537,-3.62941 13.66385,-3.62941 7.00318,0 8.16063,0.28953 11.99315,3 2.33305,1.65 5.14781,4.2216 6.25502,5.71467 1.8174,2.45076 1.8907,3.12322 0.75401,6.91714 -1.35183,4.51203 -5.94802,9.86819 -8.468,9.86819 -1.29718,0 -1.2202,-0.54744 0.4829,-3.43398 1.89369,-3.20958 1.92306,-3.63322 0.44934,-6.48307 -3.25915,-6.30251 -11.96106,-7.76963 -18.49368,-3.11799 -4.42291,3.14939 -4.94465,6.49096 -1.56437,10.01921 1.50387,1.56971 3.81001,3.124 5.12474,3.45398 3.88475,0.97501 2.731,2.56215 -1.85958,2.55811 -2.6947,-0.002 -5.53084,-0.82576 -7.75,-2.25 z M 286.93086,716.4998 c -2.8746,-2.01345 -5.90248,-9.75006 -7.33516,-18.74226 -1.08092,-6.78433 -1.02776,-8.28857 0.42758,-12.09933 0.91409,-2.39349 2.79587,-5.41704 4.18175,-6.719 3.15021,-2.95947 4.97018,-2.0467 8.28814,4.15674 1.29704,2.42502 4.55954,8.09249 7.25,12.59438 2.69046,4.50189 4.89175,8.62769 4.89175,9.16844 0,0.54075 -1.4625,1.88836 -3.25,2.99469 -1.7875,1.10633 -4.6,3.43176 -6.25,5.16762 -4.25162,4.47285 -5.82952,5.14192 -8.20406,3.47872 z m 111.20406,-6.55825 c -1.65,-1.62207 -3.7875,-3.20167 -4.75,-3.51023 -0.9625,-0.30856 -1.75,-1.24371 -1.75,-2.07809 0,-1.91308 8.64034,-12.99617 10.76839,-13.81278 4.91773,-1.88711 6.4028,9.34808 2.34391,17.73264 -1.25989,2.60259 -2.58807,4.70626 -2.95151,4.67482 -0.36343,-0.0314 -2.01079,-1.3843 -3.66079,-3.00636 z"
         id="path3036"
         inkscape:connector-curvature="0" />
      <path
         style="fill:#2d70a9"
         d="m 331.63492,911.71506 c -35.72747,-22.62541 -60.5644,-42.98153 -65.90613,-54.01608 -2.89042,-5.97082 -4.46831,-17.2155 -3.71204,-26.4536 0.64516,-7.88102 3.14545,-13.90049 8.61483,-20.74031 6.40986,-8.01596 8.16001,-12.08657 9.35968,-21.76931 1.3558,-10.94292 2.73608,-11.7916 6.12796,-3.76783 1.27012,3.00457 3.38496,6.3881 4.69965,7.51895 1.31469,1.13085 8.1909,4.02316 15.28046,6.42735 l 12.8901,4.37126 1.67968,-2.07431 c 0.92382,-1.14087 2.22223,-4.83207 2.88535,-8.20267 1.67725,-8.52529 3.42843,-7.3676 4.18987,2.76989 0.51417,6.84531 1.1138,8.89943 3.83652,13.14241 4.27128,6.65622 9.07825,10.74441 14.28059,12.14526 4.80255,1.29319 8.22885,0.95682 21.77348,-2.13757 8.75266,-1.99963 9.82416,-2.51465 13.62071,-6.5469 2.26639,-2.40709 4.53922,-4.37653 5.05073,-4.37653 0.51152,0 1.92636,2.05074 3.14409,4.55721 1.579,3.25006 3.20452,4.97105 5.66715,6 6.23556,2.60538 7.97203,1.99952 13.00108,-4.53611 2.53036,-3.28839 5.25667,-7.54894 6.05845,-9.46788 1.75318,-4.19595 1.89026,-12.37773 0.2965,-17.69722 -0.95421,-3.18486 -0.83828,-5.2903 0.65011,-11.80706 3.13187,-13.71256 0.57663,-26.85656 -5.73711,-29.51129 -2.96281,-1.24577 -3.14896,-1.62136 -2.89008,-5.83119 0.22152,-3.60218 -0.17361,-4.9192 -1.98102,-6.60306 -2.70863,-2.52347 -7.94037,-2.76558 -11.35893,-0.52565 -2.13068,1.39607 -2.27784,1.88546 -1.27803,4.25 1.98489,4.69425 5.79648,9.17225 7.80724,9.17225 1.07201,0 1.94911,0.45 1.94911,1 0,0.55 -1.76936,1 -3.93191,1 -4.28641,0 -5.74469,-1.42492 -9.93751,-9.71016 -3.00019,-5.92857 -2.77044,-9.80383 0.7925,-13.36676 2.48048,-2.48048 3.70961,-2.92308 8.11764,-2.92308 4.70077,0 5.56364,0.36906 9.07693,3.88235 2.95957,2.95958 3.88599,4.6828 3.89766,7.25 0.0321,7.0638 3.17359,7.59357 4.99165,0.84179 1.2158,-4.51512 0.071,-7.53791 -5.07425,-13.398 l -3.02989,-3.45085 2.66041,-5.25007 c 3.77609,-7.45176 4.28939,-15.02249 1.46385,-21.59064 -1.21661,-2.82808 -3.05622,-5.90596 -4.08801,-6.83972 -2.94994,-2.66966 -11.16001,-1.51178 -20.40233,2.87738 -7.29908,3.46632 -7.71399,3.83542 -7.09294,6.30988 0.73803,2.94053 1.28629,2.97664 -8.60158,-0.56649 -9.3008,-3.33276 -23.24546,-5.21012 -42.94253,-5.78132 l -18.60032,-0.5394 -6.69785,-7.91584 c -3.68382,-4.35371 -7.768,-8.40343 -9.07595,-8.99937 -3.81009,-1.736 -7.60932,-0.0671 -13.65769,5.99935 -8.13234,8.15667 -9.43122,14.63221 -6.35267,31.67095 0.79499,4.4 1.45429,8.1125 1.46512,8.25 0.0781,0.99243 -2.51867,-0.0804 -3.63065,-1.5 -1.26854,-1.61946 -1.62778,-1.46167 -4.81587,2.11529 -8.56222,9.60659 -20.14097,29.44342 -24.14044,41.35763 l -2.52475,7.52108 1.671,10.628 c 2.09265,13.30984 1.53471,18.0744 -3.3905,28.95335 -2.15999,4.77106 -4.26219,10.02465 -4.67157,11.67465 -0.7166,2.88829 -0.89171,2.6889 -4.7027,-5.35482 -5.24074,-11.06142 -9.5001,-23.50188 -12.033,-35.14518 -1.92126,-8.83167 -2.09459,-13.48729 -2.46389,-66.17776 l -0.39723,-56.67777 12.30963,-3.98178 c 34.21842,-11.0686 66.32341,-16.0353 109.13167,-16.88285 46.67656,-0.92414 83.18299,3.70466 122.61729,15.54714 l 15.56068,4.67302 0,57.5 c 0,56.53813 -0.0389,57.67375 -2.32545,67.88641 -8.02123,35.82609 -28.09306,66.97463 -62.17455,96.48575 -18.76035,16.24457 -18.74481,16.23778 -25.04131,10.93962 -3.88267,-3.26705 -6.06856,-7.43592 -7.47217,-14.25073 -0.61612,-2.99142 -1.68916,-5.6286 -2.38452,-5.86038 -0.69536,-0.23179 -6.18819,4.69074 -12.20628,10.93895 -14.23745,14.78184 -16.90129,19.85327 -17.77186,33.83409 l -0.62386,10.01897 -11.5,-7.28269 z m 55.28212,-75.08683 c 4.653,-1.99088 8.95643,-6.90465 8.55157,-9.76442 -0.71889,-5.07805 -14.65706,-6.13406 -30.73005,-2.32823 -9.27242,2.19557 -13.10364,4.23081 -13.10364,6.96099 0,4.84967 4.60593,6.30819 20.28212,6.42255 7.95366,0.058 12.82773,-0.36144 15,-1.29089 z m -0.28212,-35.87976 c 0,-0.69113 0.42598,-2.74192 0.94663,-4.5573 0.52064,-1.81538 0.71331,-3.90871 0.42814,-4.65184 -0.67938,-1.77044 -4.67883,-3.28464 -10.87477,-4.11722 -6.53287,-0.87785 -6.77023,-1.07499 -4.84038,-4.0203 2.44323,-3.72885 6.74741,-5.50612 14.81172,-6.11603 13.46548,-1.01839 21.55418,1.06484 21.51335,5.54072 -0.0271,2.96569 -1.53843,4.22396 -6.56395,5.46472 -4.34424,1.07255 -5.20781,1.75054 -7.41864,5.82438 -1.37616,2.5358 -3.1197,5.3483 -3.87454,6.25 -1.62269,1.9384 -4.12756,2.17075 -4.12756,0.38287 z M 631.57681,771.9978 c -16.22926,-2.74885 -25.74761,-13.48544 -26.73499,-30.15677 -0.8795,-14.84974 5.09329,-26.88262 16.15525,-32.54665 3.91698,-2.0056 7.07041,-2.73731 13.27076,-3.07927 13.35941,-0.73681 22.13432,3.41752 27.86176,13.19065 2.59945,4.43563 5.4665,15.06161 5.49055,20.34931 l 0.0148,3.25 -22.60841,0 -22.60841,0 0.6779,2.75 c 1.22953,4.98782 4.07866,8.71505 8.59004,11.23752 3.76058,2.10266 5.68658,2.47413 12.44888,2.40103 6.95919,-0.0752 12.94101,-1.08561 18.06255,-3.05092 1.15836,-0.44451 1.43745,0.70047 1.43745,5.89709 l 0,6.4487 -3.77167,1.13002 c -4.7075,1.41041 -16.73324,3.17939 -20.72833,3.04913 -1.65,-0.0538 -5.05115,-0.44522 -7.55811,-0.86984 z m 17.43682,-43.74273 c -1.20833,-5.03936 -3.25761,-7.96465 -6.73579,-9.61516 -7.12713,-3.38204 -14.30671,-1.02654 -17.59872,5.77385 -1.12431,2.32252 -2.0442,4.75568 -2.0442,5.40703 0,0.85397 3.77062,1.18428 13.51905,1.18428 l 13.51905,0 -0.65939,-2.75 z m 218.62129,44.06249 c -4.03722,-0.42384 -11.92894,-1.96481 -17,-3.3195 l -3.5,-0.93499 0.18015,-11.279 0.18015,-11.279 7.31985,0 7.31985,0 0.29883,5.71385 c 0.29841,5.70592 0.30395,5.71493 4,6.5 2.03564,0.43238 7.22558,0.78615 11.5332,0.78615 7.58156,0 7.92534,-0.10444 10.75,-3.26578 3.78419,-4.23524 3.90446,-8.90839 0.33834,-13.14649 -2.03347,-2.41663 -4.73296,-3.72466 -12.75,-6.17798 -13.91437,-4.25797 -15.18845,-4.77802 -19.68394,-8.03454 -10.01936,-7.25799 -11.91747,-24.43732 -3.7895,-34.29795 3.5573,-4.31562 8.36317,-6.91967 15.60229,-8.45405 9.1735,-1.94439 23.83188,-1.05771 34.45078,2.08392 l 3.75,1.10945 0,10.34171 0,10.34171 -7.5,0 -7.5,0 0,-5.48095 c 0,-5.12611 -0.17803,-5.53073 -2.75,-6.25 -5.5976,-1.5654 -14.97195,-0.86598 -17.95139,1.33934 -4.2913,3.17634 -5.67516,6.72062 -4.27755,10.95543 1.52291,4.61445 4.21339,6.23004 15.2717,9.1704 20.84993,5.54392 27.68487,12.10037 27.70166,26.57296 0.0179,15.41768 -7.91857,23.85254 -25.06,26.63373 -6.31562,1.02471 -9.95286,1.10452 -16.93442,0.37158 z m 71.69188,-0.69185 c -6.21028,-1.73204 -11.18056,-6.53292 -12.60018,-12.17075 -0.60044,-2.38454 -1.0917,-12.46126 -1.0917,-22.39271 l 0,-18.05718 -4,0 -4,0 0,-6 0,-6 4,0 4,0 0,-6.42653 0,-6.42652 8.50233,-0.32348 8.50234,-0.32347 -0.002,6.75 -0.002,6.75 8.5,0 8.5,0 0,5.95956 0,5.95956 -8.25,0.29044 -8.25,0.29044 -0.2615,16 c -0.22311,13.65069 -0.003,16.50645 1.5,19.44917 2.05636,4.02653 5.66409,5.36007 12.0115,4.43987 l 4.25,-0.61613 0,6.00226 c 0,5.98686 -0.008,6.00373 -3.25,6.57866 -8.08293,1.43357 -13.58329,1.51483 -18.05812,0.26681 z m 41.97559,-0.006 c -9.20063,-2.56488 -13.89824,-8.49316 -13.89824,-17.53929 0,-13.35002 10.47082,-20.02202 31.48077,-20.05953 l 8.74998,-0.0158 0,-4.48422 c 0,-3.51057 -0.6149,-5.17244 -2.832,-7.6538 -2.3684,-2.65075 -3.7189,-3.24235 -8.24999,-3.61415 -2.9799,-0.24452 -6.99299,-0.0366 -8.91799,0.46202 -3.22283,0.83481 -3.52435,1.23856 -3.8075,5.09838 l -0.3075,4.19177 -6.9425,0 -6.9425,0 0,-7.87686 0,-7.87685 4.84022,-2.08221 c 6.89858,-2.96769 12.62653,-4.11161 20.72828,-4.13963 9.29318,-0.0321 16.59588,2.22582 21.48538,6.64318 5.7951,5.23557 6.9461,10.20892 6.9461,30.01387 l 0,16.3185 3.5,0 3.5,0 0,6 0,6 -10.5,0 -10.5,0 0,-4 c 0,-2.2 -0.254,-4 -0.5645,-4 -0.3106,0 -1.6589,1.30047 -2.9963,2.88993 -4.6328,5.50578 -16.07294,8.14949 -24.77171,5.72451 z M 1002.0758,756.923 c 3.0979,-2.71996 5.5365,-7.84333 5.5535,-11.66773 0,-0.88758 -2.0964,-1.24363 -7.2444,-1.22804 -12.37162,0.0375 -18.44491,4.38982 -15.80705,11.32793 1.28732,3.3859 3.69146,4.58371 9.27227,4.6197 3.86549,0.0249 5.34783,-0.52504 8.22568,-3.05186 z m 53.251,14.70291 c -5.7985,-1.6172 -11.3307,-6.66144 -12.6961,-11.57628 -0.5415,-1.9494 -0.9871,-11.98186 -0.9902,-22.29436 l -0.01,-18.7502 -4,0 -4,0 0,-6 0,-6 3.9543,0 3.9543,0 0.2957,-6.59182 0.2957,-6.59181 8.2504,-0.15819 8.2504,-0.15818 -4e-4,6.75 -4e-4,6.75 8.5,0 8.5,0 0,6 0,6 -8.5,0 -8.5,0 0,16.75 c 0,14.67029 0.2388,17.13544 1.8967,19.85434 2.1517,3.52857 6.0845,4.74152 12.2019,3.76331 l 3.8977,-0.62327 0,6.01652 c 0,6.00296 -0.01,6.01782 -3.25,6.59293 -8.0829,1.43357 -13.5833,1.51483 -18.0581,0.26681 z m 50.6415,-0.12032 c -6.944,-1.5097 -9.2924,-2.58256 -14.3844,-6.57146 -13.0363,-10.21219 -14.0214,-37.36963 -1.8118,-49.95077 5.4506,-5.61645 11.6441,-8.21634 20.8628,-8.75776 16.1424,-0.94805 25.8549,5.50661 30.9228,20.5505 1.1425,3.39134 2.0772,8.43027 2.0772,11.19762 l 0,5.03155 -22,0 c -21.511,0 -22,0.0456 -22,2.04966 0,3.02625 2.5208,7.36935 5.9541,10.25825 5.6966,4.79336 18.9721,5.71935 29.4216,2.05223 2.1317,-0.74808 4.0442,-1.36014 4.25,-1.36014 0.2059,0 0.3743,2.90766 0.3743,6.46146 l 0,6.46145 -4.25,1.15575 c -4.976,1.35318 -15.9543,2.87611 -20.25,2.80912 -1.65,-0.0257 -5.775,-0.65009 -9.1666,-1.38746 z m 19.2771,-43.69805 c -0.9325,-4.66236 -3.3079,-7.7779 -7.1562,-9.3858 -8.518,-3.55906 -15.78,0.25875 -18.4943,9.72292 l -0.8204,2.86041 13.5552,0 13.5552,0 -0.6395,-3.19773 z m -594.77166,37.19935 0.33882,-6.00182 3.92563,0 3.92563,0 -0.26445,-30.75 -0.26445,-30.75 -3.75066,0 -3.75065,0 4.2e-4,-6 4.2e-4,-6 24.21232,0.22583 c 28.24554,0.26346 31.44124,0.94467 38.81583,8.27417 5.01242,4.98179 6.9755,9.9456 6.96674,17.61602 -0.008,7.37382 -1.73002,12.14183 -6.09328,16.87541 -6.10282,6.62077 -12.1354,8.76716 -26.15114,9.30456 l -11.75,0.45052 0,10.37674 0,10.37675 4,0 4,0 0,6 0,6 -17.25,0.002 -17.25,0.002 0.33882,-6.00182 z m 44.14125,-40.75337 c 7.217,-3.62595 9.93274,-11.95049 6.26838,-19.21443 -2.66055,-5.27406 -7.00659,-7.28016 -16.06953,-7.41758 l -7.67892,-0.11644 -0.27746,14.25 -0.27745,14.25 7.27745,-0.002 c 4.93225,-10e-4 8.39894,-0.56501 10.75753,-1.75 z m 102.01993,40.75155 0,-6 3.5,0 3.5,0 0,-20 0,-20 -4,0 -4,0 0,-6 0,-6 11.5,0 c 11.49628,0 11.5,7.8e-4 11.5,2.41821 0,1.33002 0.27681,3.13957 0.61513,4.02123 0.51861,1.35146 1.02862,1.18491 3.25,-1.06133 4.21261,-4.25975 9.84207,-6.33156 17.27068,-6.35615 9.07669,-0.03 16.0993,3.57255 20.34875,10.43888 3.00903,4.86205 3.0165,4.91187 3.51544,23.45578 l 0.5,18.58338 3.75,0.31037 3.75,0.31036 0,5.93964 0,5.93963 -15.5,0 -15.5,0 0,-6 0,-6 3.5,0 3.5,0 -0.022,-13.75 c -0.0183,-11.45554 -0.34669,-14.46548 -1.96796,-18.03764 -3.13461,-6.90652 -11.99454,-9.34825 -18.82026,-5.18673 -5.17353,3.15425 -6.18978,6.92091 -6.18978,22.94225 l 0,14.03212 3.5,0 3.5,0 0,6 0,6 -15.5,0 -15.5,0 0,-6 z m 84,0 0,-6 3.5,0 3.5,0 0,-20 0,-20 -4,0 -4,0 0,-6 0,-6 11.5,0 11.5,0 0,4 c 0,4.35918 0.86715,5.04362 2.69066,2.12373 2.12393,-3.40095 11.14995,-7.12428 17.25568,-7.11815 8.08623,0.008 12.70004,1.62728 17.65709,6.19653 6.30469,5.81146 7.39657,10.3108 7.39657,30.47939 l 0,16.3185 4,0 4,0 0,6 0,6 -16,0 -16,0 0,-5.93963 0,-5.93964 3.75,-0.31036 3.75,-0.31037 -0.0355,-14.5 c -0.0305,-12.47036 -0.30431,-14.95266 -1.95606,-17.73384 -3.69606,-6.22336 -12.48167,-8.1066 -18.59601,-3.98614 -5.33982,3.5985 -5.88136,5.61585 -5.89771,21.96998 l -0.0147,14.75 3.5,0 3.5,0 0,6 0,6 -15.5,0 -15.5,0 0,-6 z M 329.68879,746.90135 c -1.34537,-0.53731 -3.11008,-1.52129 -3.92157,-2.18661 -0.81149,-0.66532 -3.53573,-1.20967 -6.05387,-1.20967 -4.35672,0 -4.59233,-0.14528 -4.86536,-3 -0.47551,-4.97157 5.22535,-13.08944 12.19867,-17.37059 5.45926,-3.35162 6.50478,-3.62941 13.65999,-3.62941 7.00101,0 8.16218,0.29066 12.0403,3.01384 2.36062,1.65762 5.15447,4.49053 6.20854,6.29535 1.82255,3.12064 1.8354,3.4939 0.26203,7.6137 -1.8046,4.72528 -3.85294,6.96577 -7.34002,8.02857 l -2.25743,0.68803 2.14104,-3.62879 c 2.61146,-4.4261 1.64201,-7.46208 -3.3558,-10.50926 -4.48968,-2.73737 -9.49982,-2.54933 -14.02619,0.52642 -5.13155,3.48697 -5.79683,6.764 -2.14665,10.57396 1.56586,1.63441 3.872,3.22891 5.12474,3.54333 1.25274,0.31442 2.27771,0.97288 2.27771,1.46326 0,1.17549 -6.83683,1.02967 -9.94613,-0.21213 z m -44.88386,-33.14628 c -2.3351,-3.80764 -4.76806,-12.1171 -5.68575,-19.41887 -0.73094,-5.81594 1.49708,-12.29557 5.4291,-15.78909 2.8277,-2.51237 4.75249,-1.41198 7.95684,4.54884 1.30361,2.42502 4.56611,8.15593 7.25,12.73537 2.68389,4.57945 4.8798,8.68215 4.8798,9.11712 0,0.43497 -1.8054,1.98562 -4.01201,3.44588 -2.2066,1.46026 -5.20599,3.99506 -6.6653,5.63289 -3.52272,3.95366 -6.61758,3.86164 -9.15268,-0.27214 z m 112.82999,-4.43009 c -2.475,-1.90409 -4.89456,-3.84708 -5.3768,-4.31775 -1.17496,-1.14676 2.28199,-6.55953 7.31956,-11.46071 3.82941,-3.72572 4.1687,-3.85856 5.76875,-2.25851 2.51429,2.51429 2.05837,11.29702 -0.88193,16.98913 l -2.32958,4.50982 -4.5,-3.46198 z"
         id="path3034"
         inkscape:connector-curvature="0" />
      <path
         style="fill:#025397"
         d="m 332.60272,912.04438 c -34.6227,-21.49681 -59.73727,-41.97622 -66.54461,-54.26311 -2.8665,-5.17388 -2.92319,-5.56709 -2.92319,-20.2762 0,-16.80289 -0.35575,-15.64384 8.60242,-28.02708 5.81525,-8.03866 8.87976,-15.92516 8.91123,-22.93302 0.0166,-3.68651 0.9776,-7.5399 1.88046,-7.5399 0.36346,0 1.93133,2.91633 3.48416,6.48073 1.98308,4.55205 3.76052,7.03688 5.97252,8.3495 4.51882,2.6815 26.2403,9.54066 28.03378,8.85244 1.47996,-0.56791 2.7765,-4.38201 4.07816,-11.99688 1.13058,-6.61402 2.98649,-3.76138 3.63186,5.58237 0.64568,9.34824 1.4155,11.07529 8.23389,18.47237 7.39493,8.02256 11.61187,8.78449 28.39338,5.13023 11.67153,-2.54154 14.3174,-3.77354 17.99045,-8.37692 1.53323,-1.92158 3.30133,-3.49379 3.92911,-3.49381 0.62778,-2e-5 1.81711,1.68747 2.64295,3.74997 2.06011,5.14502 4.56469,7.13051 9.9208,7.86464 4.55526,0.62437 4.56242,0.62054 8.74879,-4.67561 6.36689,-8.05473 8.3615,-12.60089 8.37105,-19.07955 0.005,-3.10229 -0.56867,-7.03352 -1.27389,-8.73606 -1.3901,-3.35601 -1.20855,-5.28104 1.41691,-15.02403 2.95867,-10.97952 -0.42509,-23.90076 -7.09668,-27.09939 -2.74976,-1.31835 -3.01737,-1.7962 -2.20979,-3.94581 1.10429,-2.93939 -0.57837,-7.67171 -3.23297,-9.09241 -2.90678,-1.55566 -8.52957,-1.10547 -10.98048,0.87915 l -2.27345,1.84093 2.41267,4.37037 c 1.32697,2.4037 3.98767,5.43149 5.91267,6.72842 l 3.5,2.35804 -4.4637,-0.31934 c -4.30247,-0.30782 -4.58289,-0.53178 -7.76393,-6.20077 -5.5599,-9.90842 -5.5588,-14.2538 0.004,-17.64586 8.29889,-5.06004 18.14011,-0.29996 19.52518,9.4441 0.87088,6.12677 2.73518,6.93507 4.76891,2.06766 2.05143,-4.90976 1.14925,-8.38473 -3.56831,-13.74416 l -3.86803,-4.39432 2.62896,-5.31217 c 3.83788,-7.75494 4.15824,-15.34062 0.94435,-22.36068 -3.48506,-7.61239 -5.89771,-9.03728 -12.81352,-7.56761 -2.96691,0.6305 -8.47393,2.69151 -12.23782,4.58004 -6.31045,3.16625 -6.79327,3.6336 -6.19921,6.00053 0.54931,2.18859 0.37887,2.4594 -1.15655,1.83768 -6.9212,-2.80251 -13.97258,-4.79547 -21.3008,-6.02034 -12.79204,-2.13812 -34.1374,-3.64753 -41.26084,-2.91771 l -6.31629,0.64713 -4.3165,-5.595 c -6.48372,-8.40471 -11.56474,-12.63787 -15.16864,-12.63787 -3.84126,0 -13.34098,8.57798 -16.05808,14.5 -2.22801,4.85602 -2.40631,14.91418 -0.44316,25 0.74938,3.85 1.18559,7.18474 0.96937,7.41054 -0.21622,0.22579 -1.21882,-0.33671 -2.228,-1.25 -2.36322,-2.13869 -2.68779,-2.10188 -5.19831,0.58946 -8.0962,8.67935 -22.98001,34.68872 -25.51665,44.59019 -1.49327,5.82879 -1.49458,7.22012 -0.0165,17.49608 1.88515,13.10613 1.42556,16.63303 -3.66997,28.16373 -1.9444,4.4 -3.95091,9.07674 -4.45891,10.39274 -0.85141,2.20563 -1.20372,1.81461 -4.50504,-5 -5.06236,-10.44976 -8.59855,-20.66918 -11.55477,-33.39274 -2.5489,-10.97043 -2.5569,-11.15226 -2.97887,-67.64647 l -0.42311,-56.64646 9.37342,-3.01801 c 22.34769,-7.19541 43.44439,-11.79284 70.27134,-15.31366 14.48502,-1.90103 21.80806,-2.23796 49.5,-2.27746 20.55618,-0.0293 36.54252,0.4292 43.5,1.24767 29.22208,3.43767 56.96124,9.20292 78.31512,16.27687 l 9.31512,3.08584 -0.38938,57.64584 -0.38937,57.64584 -2.58625,10.5 c -9.80146,39.79332 -31.44812,71.01827 -71.97409,103.82141 l -7.70885,6.23982 -3.40933,-1.42451 c -4.80588,-2.00803 -8.82176,-7.78278 -10.75614,-15.46709 -0.91143,-3.62069 -2.24155,-6.77787 -2.95581,-7.01596 -0.71426,-0.23808 -6.38398,4.84458 -12.59939,11.29482 -14.36598,14.90875 -16.4199,18.82422 -17.25439,32.89276 l -0.60726,10.23737 -10.5322,-6.53931 z m 55.81946,-76.17837 c 5.11508,-2.47617 8.59153,-7.28464 7.17725,-9.92725 -2.17421,-4.06255 -11.8429,-4.95552 -26.32033,-2.43087 -10.29571,1.79542 -16.33707,4.05482 -17.71212,6.62412 -1.41381,2.64174 2.66857,6.5478 7.70621,7.37338 2.12395,0.34807 4.53673,0.80573 5.36173,1.01701 0.825,0.21128 5.52279,0.18016 10.43954,-0.0691 6.35873,-0.32243 10.21217,-1.06935 13.34772,-2.58725 z m -1.48326,-36.01195 c 0.31378,-1.29195 0.84381,-3.47399 1.17785,-4.84899 0.34789,-1.43204 0.0429,-3.27105 -0.71403,-4.30497 -1.41405,-1.93155 -7.21294,-3.63223 -12.51782,-3.67117 -3.62079,-0.0266 -3.98296,-0.97559 -1.70125,-4.45792 2.56276,-3.91126 6.9125,-5.03215 19.55871,-5.04011 13.07534,-0.008 14.89254,0.72351 14.89254,5.99687 0,3.11705 -0.25113,3.33806 -5.12032,4.50616 -4.00679,0.96122 -5.47473,1.87679 -6.75,4.21006 -3.44712,6.30694 -5.76858,9.26044 -7.5481,9.60314 -1.49032,0.28701 -1.73764,-0.0988 -1.27758,-1.99307 z m 238.02845,-29.64188 c -10.0559,-3.58828 -15.81057,-9.88128 -18.89029,-20.65742 -3.80662,-13.31963 0.83531,-29.98554 10.37428,-37.24672 12.66992,-9.64451 34.16116,-7.89662 42.84962,3.48497 4.20966,5.51451 7.12124,13.57916 7.51375,20.81198 l 0.32019,5.90008 -22.37111,0.26945 -22.37111,0.26946 0.62941,3.14703 c 0.87445,4.37228 4.792,9.18097 9.30636,11.42333 4.89592,2.43189 19.70653,2.47913 26.05645,0.0831 l 4.25,-1.60365 0,6.28786 0,6.28786 -3.75,1.27513 c -2.0625,0.70132 -9.375,1.46331 -16.25,1.69331 -10.35533,0.34643 -13.38661,0.10181 -17.66755,-1.42577 z m 24.23428,-39.52042 c 0.8729,-2.27472 -1.95823,-8.91518 -4.65331,-10.91441 -3.39498,-2.51844 -10.06524,-3.36625 -13.92049,-1.76935 -4.72392,1.95671 -9.37506,9.95172 -7.52806,12.94023 1.02027,1.65083 25.46212,1.41067 26.10186,-0.25647 z m 209.93327,40.18026 c -2.2,-0.51268 -5.6875,-1.38482 -7.75,-1.93809 l -3.75,-1.00595 0,-10.96145 0,-10.96146 7.5,0 c 4.125,0 7.44671,0.3375 7.38158,0.75 -0.0651,0.4125 -0.0651,2.83408 0,5.38129 0.11807,4.61776 0.13139,4.63455 4.56124,5.75 5.4141,1.36328 14.54226,1.45508 17.89605,0.17997 7.31648,-2.78172 9.00038,-10.92822 3.41113,-16.50264 -3.15586,-3.14749 -5.54475,-4.15198 -20.25,-8.51484 -14.20802,-4.21532 -19.92998,-11.11046 -19.95285,-24.04378 -0.0104,-5.88128 0.47456,-8.42017 2.24696,-11.7634 6.35141,-11.98055 25.24765,-16.1176 48.97184,-10.72164 l 7.23405,1.64535 0,9.84084 0,9.84084 -7.50233,0.32901 -7.50233,0.329 0.002,-5.203 c 0.002,-5.16117 -0.0278,-5.21136 -3.74767,-6.24442 -9.35143,-2.59702 -17.93465,-0.34424 -20.67273,5.42582 -1.95172,4.11295 -1.95684,4.88691 -0.0567,8.56145 1.47953,2.8611 7.89177,6.96015 10.88793,6.96015 3.33129,0 17.40613,5.12961 21.90521,7.98341 6.79577,4.31061 10.0558,11.47072 9.52221,20.91397 -0.70718,12.51526 -7.06984,20.48413 -18.86059,23.62181 -6.14139,1.63431 -25.05772,1.84331 -31.47537,0.34776 z m 76.09402,-1.1334 c -7.80236,-4.4616 -8.03179,-5.23725 -8.59402,-29.05335 l -0.5,-21.1802 -4.25,-0.3075 -4.25,-0.3075 0,-5.9425 0,-5.9425 4.5,0 4.5,0 0,-6.5 0,-6.5 8,0 8,0 0,6.5 0,6.5 8.5,0 8.5,0 0,6 0,6 -8.56312,0 -8.56313,0 0.31313,18.08875 0.31312,18.08874 2.94652,2.53233 c 2.62821,2.25876 3.57344,2.47547 8.75,2.00608 l 5.80348,-0.52624 0,5.77433 0,5.77433 -3.75,0.61983 c -8.40332,1.38898 -17.59127,0.69972 -21.65598,-1.6246 z m 41.37199,0.0164 c -5.85721,-2.95635 -8.92717,-8.31234 -8.94956,-15.61385 -0.0407,-13.26045 10.72035,-20.08372 31.73355,-20.12137 l 8.24998,-0.0147 0,-3.95295 c 0,-5.22604 -1.7677,-8.87558 -5.145,-10.62205 -2.87805,-1.48829 -10.38067,-1.86986 -15.72998,-0.8 -2.92857,0.58571 -3.125,0.9 -3.125,5 l 0,4.375 -6.54044,0 -6.54044,0 0.29044,-8.24518 0.29044,-8.24517 6.5,-2.34174 c 14.4109,-5.19178 31.34178,-3.57606 38.99578,3.72137 5.6865,5.42169 7.0042,11.12051 7.0042,30.29222 l 0,15.8185 2.9112,0 c 2.8539,0 2.9178,0.11808 3.25,6.00182 l 0.3388,6.00182 -10.25,-0.002 -10.25,-0.002 0,-4 c 0,-4.62977 -0.5071,-4.89629 -3.0838,-1.6206 -5.2047,6.61678 -20.94823,8.91421 -29.95017,4.3706 z m 24.30527,-11.59362 c 2.9778,-1.73289 6.7287,-8.40662 6.7287,-11.97205 0,-2.05238 -0.4548,-2.18428 -7.5321,-2.18428 -11.04946,0 -16.46788,2.89526 -16.46788,8.7994 0,2.6817 3.58841,6.97773 6.26993,7.50633 3.17566,0.62601 7.7769,-0.27294 11.00135,-2.14935 z m 50.7492,11.59367 c -8.2024,-4.19119 -8.4522,-4.99618 -9.0205,-29.0698 l -0.5,-21.1802 -4.25,-0.3075 -4.25,-0.3075 0,-5.9425 0,-5.9425 4.5,0 4.5,0 0,-6.5 0,-6.5 8,0 8,0 0,6.5 0,6.5 8.5,0 8.5,0 0,6 0,6 -8.5631,0 -8.5631,0 0.3131,18.08875 0.3131,18.08874 2.9465,2.53233 c 2.6336,2.26335 3.568,2.47597 8.7972,2.0018 l 5.8507,-0.53052 -0.2972,5.61844 c -0.351,6.63591 -0.9062,6.94304 -12.8353,7.10078 -5.9808,0.0791 -8.4478,-0.36515 -11.9414,-2.15032 z m 49.8658,0.47194 c -13.4939,-5.03628 -20.2195,-15.52086 -20.1203,-31.36586 0.069,-10.97756 2.4522,-17.24082 9.0562,-23.79789 6.5127,-6.46642 12.8392,-9.05819 22.1111,-9.05819 16.2418,0 26.9503,9.09986 29.9772,25.47387 0.5992,3.2414 1.0895,7.1608 1.0895,8.70979 l 0,2.81634 -22.5674,0 -22.5674,0 0.701,2.25 c 2.0753,6.66209 4.3106,9.53632 9.7128,12.48932 4.3706,2.38908 20.4931,2.34637 26.0931,-0.0691 2.1297,-0.9186 3.9297,-1.67034 4,-1.67053 0.07,-1.9e-4 0.062,2.81231 -0.018,6.25 l -0.1461,6.25034 -3.8539,1.41969 c -6.1153,2.25269 -27.719,2.44779 -33.4677,0.30225 z m 24.11,-40.97194 c -0.01,-3.8303 -3.3031,-8.84017 -7.1178,-10.81283 -4.5319,-2.34353 -11.2154,-1.44662 -14.7982,1.98588 -2.7508,2.63548 -5.4649,9.14561 -4.4783,10.74195 0.2838,0.45925 6.3395,0.835 13.457,0.835 l 12.941,0 0,-2.75 z m -594.99628,35.75 0,-6 4,0 4,0 0,-31 0,-31 -4,0 -4,0 0,-5.57469 0,-5.57469 25.75,0.32469 c 24.81151,0.31286 25.91401,0.41081 30.25,2.68754 8.69561,4.56587 12.75727,10.38524 13.71324,19.6477 0.80497,7.79935 -1.19645,14.62077 -5.83634,19.89196 -5.61681,6.38103 -12.15811,8.6328 -27.1269,9.33812 l -11.75,0.55365 0,10.35286 0,10.35286 4.5,0 4.5,0 0,6 0,6 -17,0 -17,0 0,-6 z m 43.28212,-40.37112 c 5.41206,-2.30605 8.00303,-5.95007 8.44064,-11.87119 0.76316,-10.32606 -6.49224,-16.12186 -19.47039,-15.55343 l -6.75237,0.29574 -0.27746,14.25 -0.27745,14.25 7.55957,0 c 4.17255,0 9.00133,-0.61432 10.77746,-1.37112 z m 102.71788,40.37112 0,-6 3.5,0 3.5,0 0,-20 0,-20 -4,0 -4,0 0,-6 0,-6 11.5,0 11.5,0 0,4 c 0,2.2 0.36581,4 0.81291,4 0.4471,0 2.08692,-1.32979 3.64406,-2.95508 7.93879,-8.28632 25.3953,-7.90331 33.83358,0.74232 5.76634,5.90804 6.70945,10.02349 6.70945,29.27812 l 0,16.81391 3.75,0.31036 3.75,0.31037 0.12372,5.75 0.12372,5.75 -15.37372,0 -15.37372,0 0,-6 0,-6 3.5,0 3.5,0 -0.0564,-13.75 c -0.0652,-15.87992 -1.04757,-19.74213 -5.84144,-22.96537 -4.51021,-3.03252 -11.7647,-3.12449 -15.48724,-0.19633 -4.93791,3.88412 -5.61492,6.58042 -5.61492,22.36204 l 0,14.54966 3.5,0 3.5,0 0,6 0,6 -15.5,0 -15.5,0 0,-6 z m 84,0 0,-6 3.5,0 3.5,0 0,-20 0,-20 -4,0 -4,0 0,-6 0,-6 11.5,0 11.5,0 0,4 c 0,2.2 0.28296,4 0.6288,4 0.34584,0 2.33899,-1.54505 4.42922,-3.43345 8.39566,-7.58498 22.95037,-7.53104 31.88675,0.11817 6.58724,5.63844 8.05523,11.26105 8.05523,30.85279 l 0,16.46249 3.41118,0 3.41118,0 0.33882,6.00182 0.33882,6.00182 -15.5,0 -15.5,0 0.33882,-6.00182 0.33882,-6.00182 3.50093,0 3.50093,0 -0.33975,-15.25 c -0.28888,-12.96648 -0.62403,-15.66944 -2.23825,-18.05111 -2.58773,-3.81803 -6.60415,-5.69889 -12.16949,-5.69889 -4.08828,0 -5.14894,0.48164 -8.54966,3.88235 l -3.88235,3.88236 0,15.61764 0,15.61765 3.5,0 3.5,0 0,6 0,6 -15.5,0 -15.5,0 0,-6 z M 330.27747,746.97686 c -1.5716,-0.47096 -3.67037,-1.59198 -4.66395,-2.49116 -1.24032,-1.12247 -3.16548,-1.53233 -6.14255,-1.30774 -3.80786,0.28726 -4.37366,0.0631 -4.64477,-1.84025 -0.40526,-2.84506 3.87108,-11.13519 7.46547,-14.47262 6.64216,-6.16731 17.08179,-9.09034 24.91729,-6.97668 2.24072,0.60444 5.95322,2.83384 8.25,4.95421 3.64776,3.36759 4.17596,4.39549 4.17596,8.12649 0,3.62822 -0.58448,4.85573 -3.88235,8.15361 -4.4168,4.41679 -7.37626,5.29787 -4.19023,1.24749 2.90705,-3.69572 2.59433,-6.04339 -1.32742,-9.96514 -2.82656,-2.82656 -4.13367,-3.39937 -7.75,-3.39626 -4.88672,0.004 -9.87383,2.57681 -12.3647,6.37835 -1.50439,2.29599 -1.49717,2.67015 0.0984,5.10534 0.94699,1.44528 3.45305,3.511 5.56903,4.5905 2.11599,1.07949 3.84725,2.17857 3.84725,2.44239 0,0.75825 -6.21188,0.39412 -9.35745,-0.54853 z m -45.97696,-34.72179 c -5.09981,-10.22934 -6.26064,-22.20312 -2.80855,-28.96978 2.24215,-4.39498 5.72731,-7.09587 7.22446,-5.59872 0.47673,0.47673 4.23597,6.70592 8.35386,13.84264 l 7.48708,12.97586 -2.71122,2.31556 c -9.62244,8.21821 -12.25388,10.18444 -13.62996,10.18444 -0.85116,0 -2.61321,-2.1375 -3.91567,-4.75 z m 112.33441,-3.88724 c -2.475,-1.94389 -4.67935,-3.71259 -4.89855,-3.93044 -0.6438,-0.63982 4.59904,-7.75086 8.46865,-11.48632 3.45414,-3.3344 3.61606,-3.38314 4.99982,-1.50487 1.47581,2.0032 1.77915,3.89603 1.45177,9.05887 -0.22098,3.48476 -3.53222,11.52406 -4.71546,11.44856 -0.44343,-0.0283 -2.83123,-1.64191 -5.30623,-3.5858 z"
         id="path3032"
         inkscape:connector-curvature="0" />
    </g>
  </g>
</svg>
