<svg xmlns:dc="http://purl.org/dc/elements/1.1/" xmlns:cc="http://creativecommons.org/ns#" xmlns:rdf="http://www.w3.org/1999/02/22-rdf-syntax-ns#" xmlns:svg="http://www.w3.org/2000/svg" xmlns="http://www.w3.org/2000/svg" xmlns:sodipodi="http://sodipodi.sourceforge.net/DTD/sodipodi-0.dtd" xmlns:inkscape="http://www.inkscape.org/namespaces/inkscape" version="1.1" x="0px" y="0px" viewBox="0 0 32 40"><g transform="translate(0,-1020.3622)"><g transform="translate(98.999563,-66.0312)"><g><g transform="translate(-98.999562,63.031208)"><g transform="translate(30.780261,-91.971858)"><path style="text-indent:0;text-transform:none;direction:ltr;block-progression:tb;baseline-shift:baseline;color:#000000;enable-background:accumulate;" d="M 30.71875 4.96875 C 30.514173 4.96875 30.321601 5.0030353 30.125 5.03125 A 0.50005 0.50005 0 0 0 30.09375 5.03125 C 28.232031 5.3124796 26.78125 6.799422 26.78125 8.65625 L 26.78125 19.5625 L 26.78125 20.03125 L 27.78125 20.03125 L 27.78125 26.53125 A 0.50005 0.50005 0 0 0 28.28125 27.03125 L 30.28125 27.03125 A 0.50005 0.50005 0 0 0 30.78125 26.53125 L 30.78125 20.5625 A 0.50005 0.50005 0 0 0 30.78125 20.53125 L 30.78125 19.53125 A 0.50005 0.50005 0 0 0 30.78125 19.4375 L 30.78125 5.53125 A 0.50005 0.50005 0 0 0 30.71875 5.25 L 30.71875 4.96875 z M 0.78125 6.03125 L 0.78125 12.53125 A 0.50005 0.50005 0 0 0 0.9375 12.875 L 1.78125 13.71875 L 1.78125 14.03125 L 1.78125 26.53125 A 0.50005 0.50005 0 0 0 2.28125 27.03125 L 4.28125 27.03125 A 0.50005 0.50005 0 0 0 4.78125 26.53125 L 4.78125 14.03125 L 4.78125 13.71875 L 5.625 12.875 A 0.50005 0.50005 0 0 0 5.78125 12.53125 L 5.78125 6.03125 L 4.78125 6.03125 L 4.78125 12.3125 L 3.9375 13.15625 A 0.50005 0.50005 0 0 0 3.78125 13.53125 L 3.78125 14.03125 L 3.78125 26.03125 L 2.78125 26.03125 L 2.78125 14.03125 L 2.78125 13.53125 A 0.50005 0.50005 0 0 0 2.625 13.15625 L 1.78125 12.3125 L 1.78125 6.03125 L 0.78125 6.03125 z M 2.78125 6.03125 L 2.78125 12.03125 L 3.78125 12.03125 L 3.78125 6.03125 L 2.78125 6.03125 z M 29.78125 6.125 L 29.78125 19.03125 L 27.78125 19.03125 L 27.78125 8.65625 C 27.78125 7.4698453 28.607797 6.4817941 29.78125 6.125 z M 15.78125 7.53125 C 10.540474 7.53125 6.28125 11.79045 6.28125 17.03125 C 6.28125 22.27195 10.540467 26.53125 15.78125 26.53125 C 21.022033 26.53125 25.28125 22.27195 25.28125 17.03125 C 25.28125 11.79045 21.022026 7.53125 15.78125 7.53125 z M 15.78125 8.53125 C 20.48159 8.53125 24.28125 12.33085 24.28125 17.03125 C 24.28125 21.73155 20.481583 25.53125 15.78125 25.53125 C 11.080917 25.53125 7.28125 21.73155 7.28125 17.03125 C 7.28125 12.33085 11.08091 8.53125 15.78125 8.53125 z M 19.40625 10.03125 A 0.50005 0.50005 0 0 0 19.28125 10.96875 C 20.889214 11.89715 22.050701 13.42535 22.53125 15.21875 A 0.50438236 0.50438236 0 1 0 23.5 14.9375 C 22.950905 12.8883 21.618542 11.15455 19.78125 10.09375 A 0.50005 0.50005 0 0 0 19.40625 10.03125 z M 15.78125 12.03125 C 13.025751 12.03125 10.78125 14.27575 10.78125 17.03125 C 10.78125 19.78675 13.025751 22.03125 15.78125 22.03125 C 18.536749 22.03125 20.78125 19.78675 20.78125 17.03125 C 20.78125 14.27575 18.536749 12.03125 15.78125 12.03125 z M 15.78125 13.03125 C 17.996313 13.03125 19.78125 14.81615 19.78125 17.03125 C 19.78125 19.24635 17.996313 21.03125 15.78125 21.03125 C 13.566187 21.03125 11.78125 19.24635 11.78125 17.03125 C 11.78125 14.81615 13.566187 13.03125 15.78125 13.03125 z M 28.78125 20.03125 L 29.78125 20.03125 L 29.78125 20.53125 A 0.50005 0.50005 0 0 0 29.78125 20.625 L 29.78125 26.03125 L 28.78125 26.03125 L 28.78125 20.03125 z " transform="translate(-30.780262,1115.3341)" fill="#000000" fill-opacity="1" stroke="none" marker="none" visibility="visible" display="inline" overflow="visible"/></g></g></g></g></g><text x="0" y="47" fill="#000000" font-size="5px" font-weight="bold" font-family="'Helvetica Neue', Helvetica, Arial-Unicode, Arial, Sans-serif">Created by Chameleon Design</text><text x="0" y="52" fill="#000000" font-size="5px" font-weight="bold" font-family="'Helvetica Neue', Helvetica, Arial-Unicode, Arial, Sans-serif">from the Noun Project</text></svg>