<svg xmlns:inkscape="http://www.inkscape.org/namespaces/inkscape" xmlns:sodipodi="http://sodipodi.sourceforge.net/DTD/sodipodi-0.dtd" xmlns:cc="http://creativecommons.org/ns#" xmlns:svg="http://www.w3.org/2000/svg" xmlns:rdf="http://www.w3.org/1999/02/22-rdf-syntax-ns#" xmlns:dc="http://purl.org/dc/elements/1.1/" xmlns="http://www.w3.org/2000/svg" xmlns:xlink="http://www.w3.org/1999/xlink" version="1.1" x="0px" y="0px" viewBox="0 0 64 80" enable-background="new 0 0 64 64" xml:space="preserve"><g><path fill="#000000" d="M38.902,15.585c-1.664,0-3.012,1.349-3.012,3.012   c0,1.663,1.348,3.012,3.012,3.012c1.662,0,3.012-1.349,3.012-3.012C41.914,16.934,40.564,15.585,38.902,15.585z M27.021,15.585   c-1.665,0-3.012,1.349-3.012,3.012c0,1.663,1.348,3.012,3.012,3.012c1.663,0,3.012-1.349,3.012-3.012   C30.033,16.934,28.684,15.585,27.021,15.585z M21.081,46.271c0,1.664,1.349,3.012,3.012,3.012H41.83   c1.662,0,3.012-1.348,3.012-3.012V33.088H21.081V46.271z M14.632,14.788c-0.587-0.591-0.88-1.363-0.88-2.131   c0-0.771,0.293-1.544,0.88-2.131c0.591-0.587,1.36-0.88,2.131-0.88c0.772,0,1.544,0.293,2.131,0.88l-0.704,0.52   c4.077-3.17,9.202-5.064,14.77-5.064c5.568,0,10.688,1.893,14.77,5.064l-0.701-0.518c0.588-0.588,1.357-0.881,2.131-0.881   c0.77,0,1.543,0.293,2.129,0.881c0.586,0.591,0.879,1.363,0.879,2.131c0,0.772-0.291,1.544-0.879,2.131l0.703,0.518   c-6.287,6.287-7.15,14.769-7.15,14.769H21.081c-0.5,0,0.497-7.123-7.15-14.769L14.632,14.788z"/></g><path fill="#000000" d="M16.917,35.35c0,2.023-1.64,3.664-3.664,3.664l0,0c-2.024,0-3.664-1.641-3.664-3.664l0,0  c0-2.023,1.64-3.664,3.664-3.664l0,0C15.276,31.686,16.917,33.326,16.917,35.35L16.917,35.35z"/><path fill="#000000" d="M56,26.8c0,2.023-1.641,3.665-3.664,3.665l0,0c-2.023,0-3.664-1.642-3.664-3.665l0,0  c0-2.022,1.641-3.664,3.664-3.664l0,0C54.359,23.136,56,24.777,56,26.8L56,26.8z"/><path fill="#000000" d="M39.512,59.166c-2.023,0-3.664-1.641-3.664-3.664l0,0c0-2.023,1.641-3.664,3.664-3.664l0,0  c2.023,0,3.664,1.641,3.664,3.664l0,0C43.176,57.525,41.535,59.166,39.512,59.166L39.512,59.166z"/><path fill="#000000" d="M26.077,59.166c-2.024,0-3.664-1.641-3.664-3.664l0,0c0-2.023,1.64-3.664,3.664-3.664l0,0  c2.024,0,3.664,1.641,3.664,3.664l0,0C29.741,57.525,28.101,59.166,26.077,59.166L26.077,59.166z"/><text x="0" y="79" fill="#000000" font-size="5px" font-weight="bold" font-family="'Helvetica Neue', Helvetica, Arial-Unicode, Arial, Sans-serif">Created by Ahmed Elzahra</text><text x="0" y="84" fill="#000000" font-size="5px" font-weight="bold" font-family="'Helvetica Neue', Helvetica, Arial-Unicode, Arial, Sans-serif">from the Noun Project</text></svg>