<svg xmlns="http://www.w3.org/2000/svg" xmlns:xlink="http://www.w3.org/1999/xlink" version="1.1" x="0px" y="0px" viewBox="0 0 100 125" enable-background="new 0 0 100 100" xml:space="preserve"><g><g><g><path d="M33.9,37.8h-0.9h-6h-0.8l-0.2,0.8l-1.2,6.5c-1.3,0.4-2.6,0.9-3.7,1.6l-5.4-3.8l-0.7-0.5l-0.6,0.6l-4.2,4.2l-0.6,0.6     l0.5,0.7l3.8,5.4c-0.7,1.2-1.1,2.5-1.5,3.8l-6.6,1.1l-0.8,0.1v0.8v6v0.8l0.8,0.2l6.6,1.2c0.4,1.3,0.9,2.5,1.6,3.7l-3.8,5.5     l-0.5,0.7l0.6,0.6l4.2,4.2l0.6,0.6l0.7-0.5l5.4-3.9c1.2,0.6,2.4,1.2,3.7,1.5l1.2,6.6l0.2,0.8h0.8h6h0.9l0.1-0.8l1.1-6.6     c1.3-0.4,2.5-0.9,3.7-1.6l5.5,3.8l0.7,0.5l0.6-0.6l4.2-4.2l0.6-0.6L49.9,77l-3.9-5.4c0.7-1.2,1.1-2.4,1.5-3.7l6.6-1.2l0.8-0.2     v-0.8v-6v-0.8l-0.8-0.1l-6.6-1.1c-0.4-1.3-0.9-2.6-1.5-3.7l3.8-5.4l0.5-0.7l-0.6-0.6L45.6,43L45,42.4l-0.7,0.5l-5.4,3.8     c-1.2-0.6-2.4-1.1-3.7-1.5l-1.1-6.5L33.9,37.8L33.9,37.8z M21,49l0.6-0.3c1.4-0.8,2.9-1.5,4.5-1.9l0.6-0.2l0.1-0.6l1.1-6.2h4.3     l1,6.2l0.1,0.7l0.6,0.2c1.6,0.4,3.1,1,4.5,1.9l0.6,0.3l0.5-0.4l5.2-3.6l3,3l-3.7,5.1l-0.4,0.5l0.3,0.6c0.8,1.4,1.4,2.9,1.8,4.5     l0.2,0.7l0.7,0.1l6.2,1v4.3L46.7,66l-0.6,0.1l-0.2,0.7c-0.4,1.6-1,3.1-1.9,4.5l-0.3,0.6l0.4,0.5l3.7,5.1l-3,3.1l-5.2-3.7L39,76.5     l-0.6,0.3c-1.4,0.8-2.9,1.4-4.5,1.8l-0.6,0.2l-0.1,0.6l-1,6.3h-4.3l-1.1-6.3l-0.1-0.7l-0.6-0.2c-1.6-0.4-3.1-1-4.5-1.8L21,76.5     l-0.5,0.4l-5.2,3.7l-3-3l3.7-5.2l0.4-0.5L16,71.2c-0.8-1.4-1.5-2.9-1.9-4.5L14,66.1L13.3,66l-6.3-1.1v-4.3l6.2-1l0.7-0.1l0.2-0.7     c0.4-1.6,1-3.1,1.8-4.5l0.3-0.5l-0.4-0.6L12.3,48l3.1-3l5.1,3.7L21,49L21,49z"/></g><g><path d="M30,56c3.7,0,6.8,3,6.8,6.8c0,3.7-3,6.8-6.8,6.8c-3.7,0-6.8-3-6.8-6.8C23.2,59,26.3,56,30,56 M30,53.7c-5,0-9,4-9,9     s4,9,9,9c5,0,9-4,9-9S35,53.7,30,53.7L30,53.7z"/></g></g><g><g><path d="M73.9,12.3H73h-6h-0.8L66,13.1l-1.2,6.5c-1.3,0.4-2.6,0.9-3.7,1.6l-5.4-3.8l-0.7-0.5l-0.6,0.6l-4.2,4.2l-0.6,0.6l0.5,0.7     l3.8,5.4c-0.7,1.2-1.1,2.5-1.5,3.8l-6.6,1.1L45,33.3v0.8v6V41l0.8,0.2l6.6,1.2c0.4,1.3,0.9,2.5,1.6,3.7l-3.8,5.5l-0.5,0.7     l0.6,0.6l4.2,4.2l0.6,0.6l0.7-0.5l5.4-3.9c1.2,0.6,2.4,1.2,3.7,1.5l1.2,6.6l0.2,0.8H67h6h0.9l0.1-0.8l1.1-6.6     c1.3-0.4,2.5-0.9,3.7-1.6l5.5,3.8l0.7,0.5l0.6-0.6l4.2-4.2l0.6-0.6l-0.5-0.7L86,46.1c0.7-1.2,1.1-2.4,1.5-3.7l6.6-1.2l0.8-0.2     v-0.8v-6v-0.8l-0.8-0.1l-6.6-1.1c-0.4-1.3-0.9-2.6-1.5-3.7l3.8-5.4l0.5-0.7l-0.6-0.6l-4.2-4.2L85,16.9l-0.7,0.5l-5.4,3.8     c-1.2-0.6-2.4-1.1-3.7-1.5L74,13.1L73.9,12.3L73.9,12.3z M61,23.5l0.6-0.3c1.4-0.8,2.9-1.5,4.5-1.9l0.6-0.2l0.1-0.6l1.1-6.2h4.3     l1,6.2l0.1,0.7l0.6,0.2c1.6,0.4,3.1,1,4.5,1.9l0.6,0.3l0.5-0.4l5.2-3.6l3,3l-3.7,5.1l-0.4,0.5l0.3,0.6c0.8,1.4,1.4,2.9,1.8,4.5     l0.2,0.7l0.7,0.1l6.2,1v4.3l-6.3,1.1L86,40.5l-0.2,0.7c-0.4,1.6-1,3.1-1.9,4.5l-0.3,0.6l0.4,0.5l3.7,5.1l-3,3.1l-5.2-3.7L79,50.9     l-0.6,0.3c-1.4,0.8-2.9,1.4-4.5,1.8l-0.6,0.2l-0.1,0.6l-1,6.3h-4.3l-1.1-6.3l-0.1-0.7L66,53.1c-1.6-0.4-3.1-1-4.5-1.8L61,50.9     l-0.5,0.4L55.3,55l-3-3l3.7-5.2l0.4-0.5l-0.3-0.6c-0.8-1.4-1.5-2.9-1.9-4.5l-0.2-0.6l-0.6-0.1L47,39.4V35l6.2-1l0.7-0.1l0.2-0.7     c0.4-1.6,1-3.1,1.8-4.5l0.3-0.5l-0.4-0.6l-3.6-5.2l3.1-3l5.1,3.7L61,23.5L61,23.5z"/></g><g><path d="M70,30.4c3.7,0,6.8,3,6.8,6.8S73.7,44,70,44c-3.7,0-6.8-3-6.8-6.8S66.2,30.4,70,30.4 M70,28.2c-5,0-9,4-9,9s4,9,9,9     c5,0,9-4,9-9S75,28.2,70,28.2L70,28.2z"/></g></g></g><text x="0" y="115" fill="#000000" font-size="5px" font-weight="bold" font-family="'Helvetica Neue', Helvetica, Arial-Unicode, Arial, Sans-serif">Created by Guilhem</text><text x="0" y="120" fill="#000000" font-size="5px" font-weight="bold" font-family="'Helvetica Neue', Helvetica, Arial-Unicode, Arial, Sans-serif">from the Noun Project</text></svg>