<svg xmlns="http://www.w3.org/2000/svg" xmlns:xlink="http://www.w3.org/1999/xlink" version="1.1" x="0px" y="0px" viewBox="0 0 100 125" enable-background="new 0 0 100 100" xml:space="preserve"><path d="M98.821,56.757l-0.028-1.839c-0.25-16.372-10.126-28.477-23.799-29.674c-1.274-9.87-8.378-16.085-18.851-16.085  c-10.518,0-19.075,8.965-19.075,19.985V60.58l-0.223,3.12l-0.004,0.13c0,6.385-3.485,11.911-8.54,14.595V29.956H0.654v60.886h27.646  v-8.396c7.103-2.894,12.164-10.105,12.19-18.55l0.223-3.121l0.005-31.631c0-9.007,6.92-16.335,15.425-16.335  c6.696,0,13.782,3.343,15.165,12.396c-14.308,0.697-21.575,11.577-23.589,21.811c-0.358,1.817-0.738,5.646-0.934,7.765l-0.182,1.977  h6.072l-5.311,11.17c-0.085,0.193-0.127,0.417-0.127,0.646c0,0.918,0.74,1.663,1.662,1.663h4.067v4.853  c0,6.217,3.644,8.149,8.141,8.149h2.764v7.604h22.512V73.596c4.571-3.593,7.586-10.504,7.869-16.839H98.821z M14.369,83.191  c-1.416,0-2.564-1.148-2.564-2.563s1.148-2.562,2.564-2.562s2.563,1.147,2.563,2.562S15.785,83.191,14.369,83.191z M21.064,58.858  H7.673v-2.592h13.391V58.858z M21.064,50.221H7.673v-2.592h13.391V50.221z M21.064,41.581H7.673V38.99h13.391V41.581z   M51.273,47.714c1.804-9.163,8.394-18.954,21.477-18.954c12.444,0,21.438,9.93,22.351,24.375H50.583  C50.837,50.612,51.082,48.686,51.273,47.714z"/><text x="0" y="115" fill="#000000" font-size="5px" font-weight="bold" font-family="'Helvetica Neue', Helvetica, Arial-Unicode, Arial, Sans-serif">Created by Luis Prado</text><text x="0" y="120" fill="#000000" font-size="5px" font-weight="bold" font-family="'Helvetica Neue', Helvetica, Arial-Unicode, Arial, Sans-serif">from the Noun Project</text></svg>